<?xml version="1.0" standalone="no"?>
<!DOCTYPE svg PUBLIC "-//W3C//DTD SVG 1.1//EN" "http://www.w3.org/Graphics/SVG/1.1/DTD/svg11.dtd" >
<svg xmlns="http://www.w3.org/2000/svg">
<metadata>Generated by IcoMoon</metadata>
<defs>
<font id="zb-icons" horiz-adv-x="1024">
<font-face units-per-em="1024" ascent="960" descent="-64" />
<missing-glyph horiz-adv-x="1024" />
<glyph unicode="&#x20;" horiz-adv-x="512" d="" />
<glyph unicode="&#xe900;" glyph-name="back-01" d="M280.914 777.524l-272.806-306.908c-11.364-12.888-11.364-32.22 0-45.112l272.806-306.906c0.194-0.224 0.392-0.45 0.594-0.674 12.64-13.958 34.208-15.028 48.168-2.38 13.962 12.638 15.030 34.208 2.386 48.168l-222.72 250.072h879.154c17.862-0.934 34.95 14.466 35.878 32.324 0.928 17.86-14.466 34.952-32.322 35.876-1.184 0.056-2.376 0.056-3.556 0h-879.152l222.72 250.426c5.242 5.85 8.308 13.33 8.676 21.176 0.878 18.814-13.662 34.78-32.476 35.658-10.43 0.488-20.51-3.832-27.35-11.72z" />
<glyph unicode="&#xe901;" glyph-name="back-02" d="M955.76 516.26h-722.7l193.226 193.228c26.662 26.662 26.662 69.894 0 96.556-26.658 26.658-69.89 26.658-96.55 0l-309.772-309.77c-3.174-3.174-6.008-6.692-8.516-10.43-1.026-1.518-1.708-3.192-2.594-4.762-1.284-2.3-2.664-4.54-3.688-6.998-0.82-1.996-1.264-4.062-1.892-6.112-0.686-2.202-1.52-4.352-1.98-6.654-0.682-3.482-0.92-7.014-1.056-10.548-0.036-0.938-0.276-1.808-0.276-2.764 0-1.058 0.276-2.050 0.304-3.092 0.156-3.414 0.362-6.826 1.044-10.208 0.476-2.442 1.348-4.696 2.080-7.034 0.598-1.912 1.008-3.86 1.776-5.716 1.094-2.644 2.562-5.102 3.976-7.56 0.786-1.382 1.382-2.85 2.27-4.198 2.528-3.806 5.412-7.342 8.636-10.548l309.686-309.686c13.33-13.33 30.808-20.004 48.286-20.004 17.474 0 34.94 6.674 48.286 20.004 26.66 26.66 26.66 69.892 0 96.54l-193.228 193.21h722.682c37.708 0 68.278 30.566 68.278 68.274s-30.572 68.272-68.278 68.272z" />
<glyph unicode="&#xe902;" glyph-name="back-03" d="M1024 512h-777.594l358.404 358.406-92.81 89.594-512-512 512-512 89.592 89.598-355.186 358.402h777.594v128z" />
<glyph unicode="&#xe903;" glyph-name="back-04" d="M221.268 437.134l515.28 515.282c0 0 27.584 19.21 54.292-7.5 26.752-26.722 0-50.104 0-50.104l-458.49-458.5 436.784-436.802c0 0 22.712-27.388-1.686-51.768-24.376-24.398-58.432 0-58.432 0l-487.748 489.392z" />
<glyph unicode="&#xe904;" glyph-name="back-05" d="M678.238 937.394l-432.24-432.242c-27.548-27.55-27.548-72.216 0-99.764v0c27.548-27.55 72.214-27.55 99.764 0l432.242 432.24c27.55 27.548 27.55 72.214 0 99.766v0c-27.546 27.548-72.214 27.548-99.766 0zM778.002 58.374l-432.24 432.238c-27.55 27.548-72.216 27.548-99.764 0v0c-27.548-27.548-27.548-72.214 0-99.764l432.238-432.24c27.55-27.548 72.218-27.548 99.766 0v0c27.55 27.55 27.55 72.218 0 99.766z" />
<glyph unicode="&#xe905;" glyph-name="back-06" d="M791.322 802.114c10.914 10.45 15.154 30.042 9.67 43.942l-42.202 106.892c-2.742 6.958-9.276 8.272-14.648 3.126l-518.134-496.156c-7.22-6.918-7.162-17.96-0.012-24.81l517.31-495.298c5.256-5.036 11.8-3.624 14.516 3.254l42.19 106.87c5.46 13.83 1.176 33.55-9.622 43.89l-369.384 353.68 370.316 354.61z" />
<glyph unicode="&#xe906;" glyph-name="back-07" d="M1024 63.624c-116.3 506.35-683.33 597.918-683.33 597.918v170.834l-341.67-340.166 341.67-343.17v170.834c0 0 435.796 8.8 683.33-256.25z" />
<glyph unicode="&#xe907;" glyph-name="back-09" d="M730.872 787.108l-339.108-339.108 339.108-339.086-52.876-51.3-386.382 390.386 386.382 390.406 52.876-51.298zM172 448l504.812-510 175.188 170-340 340 340 340-175.188 170-504.812-510z" />
<glyph unicode="&#xe908;" glyph-name="back-10" d="M63.5 448l513.552-512.572h383.448l-513.572 512.572 513.572 512.572h-383.448l-513.552-512.572z" />
<glyph unicode="&#xe909;" glyph-name="back-to-top-01" d="M76.97 959.952c-18.842-0.98-33.322-17.050-32.34-35.892s17.052-33.32 35.892-32.34v0h864.288c18.844-0.266 34.334 14.792 34.602 33.634 0.264 18.842-14.792 34.332-33.634 34.598-0.32 0.006-0.64 0.006-0.964 0h-864.288c-1.186 0.064-2.37 0.064-3.556 0zM511.25 777.998c-8.218-0.324-16.042-3.606-22.032-9.242l-250.19-238.816c-14.402-12.154-16.222-33.68-4.070-48.084 12.156-14.398 33.684-16.22 48.082-4.066 1.022 0.86 1.988 1.778 2.898 2.75l192.618 183.732v-693.67c-0.264-18.84 14.792-34.33 33.634-34.598 18.84-0.268 34.334 14.792 34.594 33.634 0.004 0.32 0.004 0.642 0 0.96v693.67l192.622-183.734c12.876-13.754 34.472-14.46 48.224-1.578 13.754 12.88 14.46 34.47 1.58 48.228-0.908 0.972-1.876 1.89-2.894 2.75l-250.194 238.816c-6.704 6.32-15.676 9.652-24.872 9.248z" />
<glyph unicode="&#xe90a;" glyph-name="back-to-top-02" d="M692.76-64v405.040h286.186l-466.946 466.894-466.946-466.894h282.616v-405.040zM55.464 959.5h913.066v-72.264h-913.066v72.264z" />
<glyph unicode="&#xe90b;" glyph-name="back-to-top-03" d="M172.584 361.266v255.226l339.416 337.758 339.416-337.758v-255.226l-339.416 337.758-339.416-337.758zM851.416-64v255.186l-339.416 337.8-339.416-337.8v-255.186l339.416 337.76 339.416-337.76z" />
<glyph unicode="&#xe90c;" glyph-name="back-to-top-04" d="M483.676 948.412l-417.048-417.038c0 0-25.336-16.75-25.336-40.802s19.754-40.372 43.376-40.372h257.7v-477.168c0-23.622 19.324-38.222 42.95-38.222h257.702c23.622 0 42.95 14.602 42.95 38.222v477.168h257.696c23.624 0 42.95 16.75 42.95 40.802s-25.34 41.662-25.34 41.662l-417.040 416.178c-16.322 16.75-43.808 16.32-60.56-0.43zM840.156 536.1h-240.086v-515.394h-171.796v515.394h-240.094l325.992 325.984 325.984-325.984z" />
<glyph unicode="&#xe90d;" glyph-name="back-to-top-05" d="M682.662-64.002v512.016h341.324l-511.986 511.986-511.986-511.986h341.324v-512.016z" />
<glyph unicode="&#xe90e;" glyph-name="back-to-top-06" d="M512 960.002l-341.334-469.336h256v-554.664h170.666l0.002 554.664h256l-341.334 469.336z" />
<glyph unicode="&#xe90f;" glyph-name="back-to-top-07" d="M170.666 618.666v-232.060l170.916 171.728v-622.332h340.836l0.002 622.332 170.912-171.728 0.002 232.060-341.334 341.336-341.334-341.336z" />
<glyph unicode="&#xe910;" glyph-name="back-to-top-08" d="M512 960l-272-272v-144l208 208v-816h128v816l208-208v144l-272 272z" />
<glyph unicode="&#xe911;" glyph-name="back-to-top-09" d="M605.298 354.908h139.946l-233.244 279.274-233.246-279.274h139.948v-418.908h186.596v418.908zM45.51 773.82h932.98v186.18h-932.98v-186.18z" />
<glyph unicode="&#xe912;" glyph-name="back-to-top-10" d="M170.666 960v-113.776h682.666v113.776h-682.666zM151.702 448l78.222-80 225.186 225.186v-657.186h113.778v657.186l225.188-225.186 78.222 80-360.298 360.298-360.298-360.298z" />
<glyph unicode="&#xe913;" glyph-name="back-to-top-11" d="M576-64v777.594l358.406-358.404 89.594 92.81-512 512-512-512 89.598-89.592 358.402 355.186v-777.594h128z" />
<glyph unicode="&#xe914;" glyph-name="back-to-top-12" d="M512 896.5l-512.572-513.552v-383.448l512.572 513.572 512.57-513.572v383.448l-512.57 513.552z" />
<glyph unicode="&#xe915;" glyph-name="back-to-top-13" d="M1001.394 281.766l-432.242 432.24c-15.626 15.626-36.76 22.378-57.152 20.278-20.392 2.1-41.524-4.652-57.15-20.278l-432.24-432.24c-27.548-27.55-27.548-72.218 0-99.766 27.548-27.55 72.216-27.55 99.766 0l389.624 389.628 389.628-389.628c27.548-27.55 72.214-27.55 99.766 0 27.548 27.546 27.548 72.214 0 99.766z" />
<glyph unicode="&#xe916;" glyph-name="back-to-top-14" d="M501.134 738.732l515.282-515.282c0 0 19.21-27.584-7.498-54.292-26.722-26.752-50.106 0-50.106 0l-458.5 458.49-436.802-436.782c0 0-27.388-22.712-51.768 1.686-24.398 24.376 0 58.432 0 58.432l489.392 487.748z" />
<glyph unicode="&#xe917;" glyph-name="back-to-top-15" d="M512.498 538.994l353.68-369.384c10.34-10.796 30.060-15.082 43.89-9.622l106.87 42.19c6.876 2.714 8.29 9.26 3.254 14.516l-495.3 517.308c-6.85 7.15-17.892 7.208-24.81-0.012l-496.154-518.13c-5.148-5.374-3.834-11.906 3.124-14.648l106.894-42.204c13.9-5.484 33.492-1.244 43.942 9.67l354.61 370.316z" />
<glyph unicode="&#xe918;" glyph-name="bag-01" d="M1012.862 581.4c-12.558 14.142-30.986 21.624-49.848 20.238h-46.226c-0.886 1.628-1.882 3.194-2.982 4.686l-244.128 304.84c-14.472 18.138-40.802 21.358-59.22 7.242-17.8-13.128-21.588-38.202-8.458-56.002 0.322-0.442 0.658-0.876 1-1.302l208.552-259.464h-602.010l215.37 259.038c14.194 16.964 11.95 42.222-5.014 56.416-0.45 0.376-0.908 0.744-1.376 1.102-18.176 14.508-44.628 11.758-59.434-6.178l-253.714-304.414c-1.254-1.548-2.394-3.184-3.408-4.9h-40.902c-18.678 0.818-36.686-7.046-48.782-21.302-11.208-14.446-14.632-33.466-9.16-50.914l137.614-497.016c4.26-15.338 21.302-64.97 63.906-64.97h614.792c32.592 0 55.6 30.46 63.906 60.708l137.4 504.686c5.466 16.16 2.508 33.978-7.878 47.506zM801.966 50.086h-578.362c-0.548 1.188-1.046 2.394-1.492 3.622l-129.094 466.128h836.762l-127.814-469.75zM322.234 172.79c22.88-0.018 41.69 18.040 42.604 40.902v163.2c0 23.536-19.074 42.61-42.604 42.61s-42.604-19.074-42.604-42.61v-163.414c1.024-22.778 19.802-40.712 42.604-40.688zM701.844 172.79c22.882-0.018 41.692 18.040 42.606 40.902v163.2c0 23.536-19.074 42.61-42.606 42.61-23.53 0-42.606-19.074-42.606-42.61v-163.414c1.028-22.778 19.804-40.712 42.606-40.688zM512.040 172.79c22.878-0.018 41.69 18.040 42.606 40.902v163.2c0 23.536-19.076 42.61-42.606 42.61s-42.606-19.074-42.606-42.61v-163.414c1.026-22.778 19.802-40.712 42.606-40.688z" />
<glyph unicode="&#xe919;" glyph-name="bag-02" d="M852.268 659.066h-170.134v127.6c0 93.954-76.178 170.132-170.134 170.132s-170.132-76.178-170.132-170.132v-127.6h-170.136l-85.066-723.066h850.668l-85.066 723.066zM384.398 786.666c0 70.34 57.26 127.598 127.602 127.598 70.364 0 127.602-57.258 127.602-127.598v-127.6h-255.204v127.6zM341.868 574v-63.8c0-11.734 9.532-21.268 21.266-21.268s21.264 9.534 21.264 21.268v63.8h255.204v-63.8c0-11.734 9.552-21.268 21.266-21.268s21.268 9.534 21.268 21.268v63.8h94.538l20.020-170.134h-569.318l20.018 170.134h94.474z" />
<glyph unicode="&#xe91a;" glyph-name="bag-03" d="M852.046 660.526h-170.022v127.518c0 93.894-76.128 170.022-170.022 170.022-93.896 0-170.022-76.128-170.022-170.022v-127.518h-170.024l-85.010-722.592h850.11l-85.010 722.592zM384.484 788.044c0 70.294 57.22 127.518 127.516 127.518 70.32 0 127.514-57.222 127.514-127.518v-127.518h-255.030v127.518zM182.542 22.944l64.982 552.572h94.458v-63.758c0-11.726 9.526-21.252 21.25-21.252 11.728 0 21.254 9.526 21.254 21.252v63.758h255.030v-63.758c0-11.726 9.55-21.252 21.254-21.252 11.708 0 21.254 9.526 21.254 21.252v63.758h94.476l64.96-552.572h-658.918z" />
<glyph unicode="&#xe91b;" glyph-name="bag-04" d="M912.474 709.070h-202.77v147.010c0 57.028-46.892 103.92-103.92 103.92h-190.1c-57.028 0-103.92-46.892-103.92-103.92v-147.010h-202.774v-773.070h806.020v773.070h-2.536zM386.534 856.080c0 15.208 12.674 27.88 27.882 27.88h190.102c15.208 0 27.878-12.672 27.878-27.88v-147.010h-245.862v147.010zM836.438 12.042h-652.676v620.988h126.734v-140.672c0-21.544 16.474-38.020 38.018-38.020s38.020 16.476 38.020 38.020v140.672h247.13v-140.672c0-21.544 16.476-38.020 38.020-38.020s38.020 16.476 38.020 38.020v140.672h126.734v-620.988z" />
<glyph unicode="&#xe91c;" glyph-name="bag-05" d="M885.132-64l27.254 765.73h-208.952v258.27h-382.866v-258.27h-208.954l27.258-765.73h746.26zM372.482 908.086h279.038v-206.356h-279.038v206.356z" />
<glyph unicode="&#xe91d;" glyph-name="bag-06" d="M255.668-53.15l-128.168 90.7v606.622l128.168-58.054v-639.268zM341.112 581.508v-646.174l555.388 83.484v642.794l-555.388-80.104zM595.86 917.946c-89.576 0-169.098-85.654-169.262-182.258l-0.042-71.908c0-13.016 11.66-23.072 24.572-21.088 10.408 1.564 18.148 10.554 18.148 21.088v71.824c0.126 73.052 60.496 139.62 126.582 139.62 22.948 0 43.39-8.324 59.16-24.094 18.024-18.064 27.91-44.224 27.87-73.782v-74.638c0-13.018 11.682-23.072 24.574-21.112 10.386 1.586 18.064 10.514 18.064 21.028l0.084 74.722c0.084 81.332-56.406 140.598-129.75 140.598zM322.878 661.82c10.452 1.586 18.232 10.556 18.232 21.154v95.354c0.084 73.052 60.494 139.62 126.58 139.62l6.928-0.648c15.644 12.098 32.688 21.924 50.752 29.184-17.292 8.844-36.652 14.184-57.68 14.184-89.532 0-169.094-85.654-169.26-182.258v-95.478c0-13.082 11.62-22.99 24.448-21.112z" />
<glyph unicode="&#xe91e;" glyph-name="bag-07" d="M234.5 468.016c10.432 0 18.888 8.454 18.89 18.886 0 0.084-0.002 0.168-0.002 0.254 0 1.888-2.14 186.238 67.622 257.134 15.472 16.724 37.282 26.144 60.064 25.94 22.236 0.432 43.578-8.746 58.556-25.184 66.99-70.516 58.048-254.868 57.922-256.756-0.57-10.416 7.412-19.322 17.828-19.894 0.020 0 0.040 0 0.054-0.002h1.008c10.050-0.014 18.352 7.844 18.888 17.88 0 8.184 9.822 202.358-68.25 284.71-21.954 24.304-53.258 38.054-86.008 37.778-33 0.086-64.542-13.606-87.010-37.778-81.22-82.354-78.45-276.15-78.45-284.334 0.204-10.302 8.58-18.568 18.888-18.634zM586.452 584.494h-28.96c1.258-13.474 2.138-26.194 2.644-37.776h26.316c13.602 0 22.542-7.934 22.794-13.348l25.182-545.866c-0.078-2.466-1.172-4.792-3.020-6.422-5.352-4.99-12.458-7.662-19.772-7.432h-472.84c-7.312-0.23-14.418 2.442-19.77 7.432-1.85 1.63-2.944 3.956-3.022 6.422l25.184 545.866c0 5.414 9.318 13.348 22.792 13.348h28.458c0.88 11.584 2.14 24.302 3.904 37.776h-32.616c-32.614 0-59.308-21.784-60.568-49.362l-25.186-545.866c-0.882-29.088 26.318-53.266 60.82-53.266h472.588c34.376 0 61.954 24.178 60.57 53.39l-25.188 545.866c-1 27.454-28.2 49.238-60.31 49.238zM280.838 546.718h190.774c0 12.59-1.512 25.184-3.024 37.776h-183.218c-2.014-13.096-3.398-25.814-4.532-37.776zM860.838 735.6h-16.37c3.196-33.478 4.080-67.136 2.644-100.738-1.608-30.060-26.436-53.618-56.542-53.642h-3.022c-31.32 1.688-55.34 28.446-53.652 59.764 0.004 0.060 0.006 0.118 0.010 0.174 1.12 31.608-0.060 63.256-3.528 94.694h-157.78c-4.864-32.008-7.348-64.334-7.43-96.71 0.002-5.636-0.848-11.24-2.52-16.622h23.674c52.888 0 96.078-37.776 98.348-85.376l20.648-450.038h180.574c34.88 0 61.83 24.3 60.066 53.39l-25.186 545.738c-0.624 27.582-27.446 49.366-59.934 49.366zM595.016 895.522c15.47 16.724 37.282 26.144 60.064 25.94 22.234 0.432 43.574-8.748 58.554-25.184 66.992-70.518 58.050-254.87 57.924-256.756-0.568-10.416 7.412-19.324 17.828-19.892 0.016-0.002 0.036-0.002 0.054-0.004h1.008c10.048-0.014 18.352 7.846 18.884 17.88 0 8.186 9.822 202.358-68.248 284.712-21.954 24.304-53.256 38.052-86.006 37.776-33.002 0.088-64.542-13.604-87.012-37.776-33.246-33.874-52.512-86.636-62.96-137.634 11.856-15.264 21.792-31.926 29.592-49.614 7.302 56.414 24.178 123.784 60.318 160.552z" />
<glyph unicode="&#xe91f;" glyph-name="cart-01" d="M918.712 339.882l104.178 334.494c3.598 11.46 1.518 23.96-5.686 33.72-7.112 9.656-18.46 15.436-30.492 15.436h-748.388l-42.526 111.192c-5.682 14.686-19.698 24.34-35.414 24.34h-123.11c-20.936-0.022-37.894-16.974-37.894-37.9 0-20.83 16.954-37.878 37.892-37.878h97.074l41.666-108.914c0.088-0.374 0.196-0.754 0.372-1.040l1.232-3.22 127.57-333.556c0-0.098 0-0.196 0.088-0.196l34.184-89.492c-35.982-18.382-60.702-55.79-60.702-98.876 0-61.25 49.814-111.054 111.082-111.054 61.184 0 110.998 49.804 110.998 111.054 0 12.308-1.994 24.136-5.772 35.222h227.67c-3.796-11.086-5.776-22.918-5.776-35.222 0-61.25 49.812-111.054 111.102-111.054 61.208 0 111.014 49.804 111.014 111.054 0 61.18-49.808 110.984-111.014 110.984h-412.162l-20.748 54.266h487.39c16.57 0.032 31.256 10.812 36.172 26.64zM828.064 183.226c19.416 0 35.248-15.812 35.248-35.222 0-19.504-15.814-35.316-35.248-35.316-19.528 0-35.334 15.812-35.334 35.316 0.004 19.41 15.808 35.222 35.334 35.222zM737.696 647.758h197.5l-36.368-116.868h-170.314l9.182 116.868zM267.302 647.758h212.42l9.090-116.868h-176.906l-44.604 116.868zM425.082 148.012c0-19.508-15.812-35.308-35.238-35.308-19.508 0-35.32 15.8-35.32 35.308 0 19.402 15.81 35.226 35.32 35.226 19.426-0.012 35.238-15.824 35.238-35.226zM366.172 389.036l-39.78 103.986h165.356l8.142-103.986h-133.718zM679.456 389.036h-141.58l-8.058 103.986h157.87l-8.232-103.986zM690.63 530.89h-163.834l-9.096 116.868h182.124l-9.194-116.868zM717.432 389.036l8.142 103.986h161.508l-32.392-103.986h-137.258z" />
<glyph unicode="&#xe920;" glyph-name="cart-02" d="M500.656 31.39c0-47.197-38.261-85.458-85.458-85.458s-85.458 38.261-85.458 85.458c0 47.197 38.261 85.458 85.458 85.458s85.458-38.261 85.458-85.458zM823.262 31.39c0-47.197-38.261-85.458-85.458-85.458s-85.458 38.261-85.458 85.458c0 47.197 38.261 85.458 85.458 85.458s85.458-38.261 85.458-85.458zM880.946 334.766c10.686 0 19.228 6.41 21.368 14.958l121.778 431.564c4.274 10.682-2.136 23.5-14.956 25.638-2.134 0-4.276 0-6.41 0h-769.128c0 2.136 0 4.272-2.134 4.272l-40.594 111.094c-4.274 14.958-17.090 23.5-29.91 27.776v0h-121.778c-23.502-2.138-40.592-21.364-40.592-42.732 0-23.5 17.090-40.592 40.592-42.728h85.458l21.366-53.412 128.19-459.338c0-4.274 2.134-6.406 4.27-8.542l-51.274-123.914c-8.542-19.23 2.136-42.73 21.368-51.274v0h2.136c4.274-2.136 10.68-4.278 17.090-4.278h598.208c23.502 0 42.73 19.226 42.73 42.73 0 23.5-19.228 42.726-42.73 42.726h-540.526l36.32 85.458 519.158 0.002z" />
<glyph unicode="&#xe921;" glyph-name="cart-03" d="M920.542 325.758l104.040 455.248h-806.524l-29.796 97.872h-155.1c-18.642 0-33.746-15.116-33.746-33.746 0-18.632 15.104-33.746 33.746-33.746h105.026l150.498-496.026-64.468-89.028-0.022 0.090-20.406-26.692c-17.142-19.376-27.55-44.82-27.55-72.676 0-60.626 49.318-109.93 109.94-109.93 60.62 0 109.938 49.648 109.938 110.282 0 15.024-3.044 29.266-8.532 42.758h313.262c-5.486-13.5-8.532-27.714-8.532-42.746 0-60.622 49.318-110.11 109.95-110.11 60.61 0 109.93 49.25 109.93 109.868 0 60.622-49.32 109.894-109.93 109.894-1.146 0-2.282 0.25-3.424 0.23-0.56 0.020-1.146 0.378-1.706 0.378h-482.020l28.994 39.746 576.432 48.334zM802.254 169.524c23.394 0 42.426-19.032 42.426-42.426 0-23.418-19.032-42.45-42.426-42.45-23.406 0-42.448 19.032-42.448 42.45 0 23.394 19.042 42.426 42.448 42.426zM328.604 127.098c0-23.418-19.032-42.45-42.438-42.45s-42.448 19.032-42.448 42.45c0 23.394 19.042 42.426 42.448 42.426s42.438-19.032 42.438-42.426zM238.522 713.516h701.406l-74.2-324.652-515.516-43.652-111.69 368.304z" />
<glyph unicode="&#xe922;" glyph-name="cart-04" d="M941.392 205.146h-624.268c-27.938-0.024-52.456 18.61-59.91 45.534l-158.764 595.342h-97.456v79.88h112.034c27.938 0.026 52.454-18.608 59.91-45.532l158.764-595.342h610.088v-79.88h-0.398zM339.69 156.42c-49.3 0-89.268-39.964-89.268-89.268 0-49.3 39.968-89.266 89.268-89.266s89.266 39.964 89.266 89.266c0.002 49.304-39.966 89.268-89.266 89.268v0zM948.98 59.764c0.22-49.3-39.564-89.446-88.866-89.666-49.298-0.218-89.446 39.566-89.664 88.87-0.222 49.298 39.564 89.444 88.868 89.664 0.13 0 0.266 0 0.396 0 49.146-0.002 89.048-39.724 89.266-88.868v0zM264.802 801.090l117.424-439.358c2.762-8.732 10.818-14.696 19.97-14.788h523.218c9.77-0.16 18.214 6.77 19.972 16.384l78.282 439.356c1.988 10.848-5.196 21.254-16.044 23.242-1.294 0.236-2.61 0.346-3.926 0.324h-718.924c-11.024 0.38-20.268-8.246-20.65-19.268-0.068-1.986 0.16-3.974 0.678-5.892z" />
<glyph unicode="&#xe923;" glyph-name="cart-06" d="M994.504 743.914h-771.21l-40.546 151.672c-2.952 11.098-11.87 19.61-23.076 22.090l-123.462 27.46c-16.658 3.764-33.042-6.78-36.718-23.376-3.702-16.596 6.758-33.042 23.376-36.742l105.218-23.396 159.82-597.828c3.614-13.476 15.804-22.822 29.77-22.822h471.798l-26.434-68.072h-443.122c-17.002 0-30.774-13.814-30.774-30.794s13.792-30.776 30.774-30.776h464.188c12.724 0 24.124 7.788 28.72 19.656l50.32 129.662c3.66 9.474 2.44 20.168-3.314 28.55-5.73 8.384-15.224 13.388-25.404 13.388h-493.124l-21.556 80.562h558.116c17.002 0 30.794 13.794 30.794 30.776s-13.814 30.794-30.794 30.794h-574.584l-23.524 87.984h652.982c17.002 0 30.776 13.814 30.776 30.796 0 16.98-13.792 30.774-30.776 30.774h-669.43l-23.544 88.048h754.716c17.004 0 30.774 13.794 30.774 30.774 0 16.982-13.77 30.82-30.75 30.82zM449.668 7.458c0-31.678-25.68-57.358-57.358-57.358s-57.358 25.68-57.358 57.358c0 31.678 25.68 57.358 57.358 57.358s57.358-25.68 57.358-57.358zM788.746 7.458c0-31.678-25.68-57.358-57.358-57.358s-57.358 25.68-57.358 57.358c0 31.678 25.68 57.358 57.358 57.358s57.358-25.68 57.358-57.358z" />
<glyph unicode="&#xe924;" glyph-name="cart-07" d="M280.65 7.526c-17.798 3.518-31.018 10.518-43.614 23.096-7.592 7.58-10.292 11.288-14.576 20.008-7.080 14.418-9.13 22.858-9.13 37.572 0 14.718 2.050 23.154 9.13 37.572 4.3 8.756 6.984 12.434 14.73 20.178 7.744 7.746 11.422 10.43 20.178 14.728 14.416 7.082 22.854 9.132 37.57 9.132 14.718 0 23.154-2.050 37.572-9.132 8.754-4.298 12.434-6.982 20.178-14.728 7.744-7.744 10.43-11.422 14.728-20.178 7.082-14.418 9.132-22.854 9.132-37.572 0-14.714-2.050-23.154-9.132-37.572-4.298-8.752-6.984-12.432-14.728-20.176-14.826-14.826-32.974-22.84-54.32-23.986-5.838-0.314-12.91 0.11-17.718 1.058v0zM688.824 7.098c-19.698 3.060-39.708 14.474-51.522 29.384-6.458 8.146-13.624 22.47-16.158 32.286-1.202 4.656-1.918 11.918-1.918 19.436 0 14.38 2.066 23.286 8.354 36.012 8.55 17.298 19.898 28.648 37.198 37.198 12.726 6.29 21.63 8.356 36.014 8.356 14.376 0 23.282-2.066 36.008-8.356 17.3-8.548 28.652-19.898 37.198-37.198 6.29-12.726 8.354-21.63 8.354-36.012 0-14.378-2.064-23.284-8.354-36.010-8.548-17.304-19.904-28.658-37.198-37.192-5.028-2.482-12.108-5.266-15.734-6.184-8.792-2.224-23.834-3.030-32.242-1.72v0zM142.528 226.246c-15.946 57.92-140.432 524.918-140.966 528.812l-0.738 5.39h504.472v-97.168l-377.92-0.578 92.66-345.858h559.636v572.79h243.508v-97.174h-146.334v-572.786h-732.508l-1.81 6.572z" />
<glyph unicode="&#xe925;" glyph-name="chat-bubble-01" d="M512.002 960.568c-281.334 0-509.402-212.488-509.402-474.6 0-149.356 74.078-282.574 189.836-369.574v-180.96l173.442 95.782c46.294-12.882 95.334-19.844 146.122-19.844 281.338 0 509.398 212.484 509.398 474.598 0 262.11-228.058 474.598-509.396 474.598zM562.628 321.442l-129.722 139.22-253.122-139.22 278.432 297.414 132.888-139.212 249.954 139.212-278.43-297.414z" />
<glyph unicode="&#xe926;" glyph-name="chat-bubble-02" d="M511.958 832.226c235.386 0 426.923-153.339 426.923-341.827 0-209.915-219.626-339.829-423.086-339.829-82.695 0-144.421 16.928-187.596 27.432-42.69-26.179-68.079-44.273-182.374-77.715 22.844 58.619 30.869 117.323 25.699 182.11-35.773 42.695-86.448 102.475-86.448 208.041-0.037 188.448 191.515 341.787 426.881 341.787zM511.958 917.611c-270.575 0-512.306-180.42-512.306-427.209 0-87.507 31.5-173.479 87.385-240.145 2.354-78.13-43.669-190.238-85.072-271.867 111.087 20.092 268.952 64.368 340.597 108.273 60.533-14.719 118.471-21.469 173.312-21.469 302.388 0 508.468 206.495 508.468 425.209-0.080 248.168-243.511 427.209-512.385 427.209zM362.536 490.69c0-35.373-28.66-64.035-64.037-64.035s-64.040 28.662-64.040 64.035c0 35.375 28.662 64.040 64.040 64.040 35.38 0 64.037-28.662 64.037-64.040zM511.958 554.73c-35.375 0-64.040-28.665-64.040-64.040 0-35.373 28.662-64.035 64.040-64.035 35.355 0 64.040 28.662 64.040 64.035 0 35.378-28.684 64.040-64.040 64.040zM725.419 554.73c-35.358 0-64.042-28.665-64.042-64.040 0-35.373 28.684-64.035 64.042-64.035 35.355 0 64.040 28.662 64.040 64.035 0 35.378-28.684 64.040-64.040 64.040z" />
<glyph unicode="&#xe927;" glyph-name="chat-bubble-03" d="M308.92 205.722c-0.078 0.024-0.156 0.040-0.232 0.054-64.172-39.316-205.664-79.068-305.196-97.062 37.138 73.208 78.36 173.696 76.248 243.754-50.032 59.8-78.294 136.848-78.294 215.322 0 221.26 216.57 383.032 459.026 383.032 240.95 0 459.028-160.554 459.028-383.032 0-3.158-0.062-6.314-0.164-9.464-27.964 14.994-58.258 27.18-90.762 36.152-16.988 149.888-175.574 267.742-368.1 267.742-203.816 0-369.636-132.082-369.636-294.43 0-85.426 37.204-139.212 89.698-192.264-10.672-78.758-36.3-147.222-36.3-147.222s75.698 19.86 161.728 69.632c-3.648-31.236-2.626-61.982 2.956-92.214zM1021.148-54.824c-68.48 12.386-165.856 39.746-210.016 66.792-243.136-59.176-420.34 89.704-420.34 249.128 0 153.098 150.068 263.584 315.876 263.584 166.86 0 315.886-111.326 315.886-263.584 0-54.008-19.458-107.032-53.878-148.172-1.45-48.214 26.922-117.374 52.472-167.748zM627.308 257.878c0 23.766-19.43 43.024-43.41 43.024-23.968 0-43.406-19.254-43.406-43.024 0-23.762 19.438-43.032 43.406-43.032 23.978 0.006 43.41 19.272 43.41 43.032zM756.75 257.878c0 23.766-19.434 43.024-43.414 43.024-23.968 0-43.41-19.254-43.41-43.024 0-23.762 19.438-43.032 43.41-43.032 23.98 0.006 43.414 19.272 43.414 43.032zM884.606 257.878c0 23.766-19.434 43.024-43.406 43.024-23.974 0-43.414-19.254-43.414-43.024 0-23.762 19.436-43.032 43.414-43.032 23.972 0.006 43.406 19.272 43.406 43.032z" />
<glyph unicode="&#xe928;" glyph-name="coupon-01" d="M326.004 81.374l-179.69 179.706-29.148-49.928c-17.456-29.92-7.29-68.704 22.652-86.174l309.006-180.464c29.934-17.472 68.72-7.272 86.194 22.64l247.716 424.246-310.032-310.026c-40.324-40.338-106.338-40.338-146.698 0zM336.786 478.024c-18.62 0-33.73-15.092-33.73-33.714 0-18.584 15.112-33.694 33.73-33.694 18.608 0 33.684 15.11 33.684 33.694 0.002 18.62-15.074 33.714-33.684 33.714zM585.136 532.754c-18.64 0-33.716-15.096-33.716-33.7 0-18.636 15.076-33.698 33.716-33.698 18.588 0 33.682 15.060 33.682 33.698 0.004 18.604-15.094 33.7-33.682 33.7zM941.12 818.874l-7.398 61.734-2.776 35.494c-11.308 21.058-33.238 35.982-57.89 36.876l-206.718 7.004c-34.846 1.132-83.688-18.084-108.368-42.75l-461.39-461.386c-24.666-24.65-24.666-65.144 0-89.784l255.128-255.126c24.648-24.668 65.116-24.668 89.778 0l461.636 461.638c24.648 24.398 43.882 73.254 42.75 108.086l-4.752 138.214zM394.226 386.874c-31.668-31.684-82.998-31.684-114.888 0-31.666 31.672-31.666 83.236 0 114.902 31.668 31.668 83.218 31.668 114.888 0 31.682-31.668 31.682-83.232 0-114.902zM478.366 285.554c-10.84-0.914-20.59 7.008-21.484 17.848l-30.77 332.478c-0.878 10.86 7.024 20.572 17.882 21.484 10.846 0.914 20.588-7.002 21.468-17.846l30.774-332.494c0.91-10.842-7.004-20.584-17.87-21.47zM642.588 441.59c-31.682-31.672-83.268-31.672-114.918 0-31.67 31.682-31.67 83.23 0 114.914 31.65 31.656 83.236 31.656 114.918 0 31.656-31.684 31.656-83.232 0-114.914zM827.448 812.208c-28.054 0-50.802 22.744-50.802 50.8s22.748 50.804 50.802 50.804c28.060 0 50.808-22.746 50.808-50.804 0-28.052-22.748-50.8-50.808-50.8z" />
<glyph unicode="&#xe929;" glyph-name="coupon-02" d="M1000.76 724.232h-701.232l-42.518-42.492-42.488 42.492h-191.244c-11.742 0-21.26-9.514-21.26-21.25v-509.98c0-11.738 9.518-21.234 21.26-21.234h191.244l42.488 42.456 42.518-42.456h701.232c11.734 0 21.222 9.496 21.222 21.234v509.98c0 11.736-9.488 21.25-21.222 21.25zM979.512 214.222h-662.394l-60.114 60.146-60.072-60.146h-152.392v467.518h152.394l60.072-60.094 60.114 60.084h662.39v-467.508h0.002zM554.522 447.99c46.93 0 84.976 38.054 84.976 85.002 0 46.93-38.046 84.994-84.976 84.994-46.942 0-85.006-38.064-85.006-84.994 0-46.948 38.064-85.002 85.006-85.002zM554.522 575.488c23.442 0 42.502-19.062 42.502-42.494 0-23.43-19.064-42.502-42.502-42.502s-42.518 19.072-42.518 42.502c0 23.432 19.080 42.494 42.518 42.494zM724.518 447.99c-46.956 0-85.020-38.048-85.020-84.972 0-46.932 38.064-85.042 85.020-85.042 46.944 0 84.994 38.104 84.994 85.042 0 46.924-38.064 84.972-84.994 84.972zM724.518 320.498c-23.456 0-42.49 19.046-42.49 42.52 0 23.416 19.036 42.458 42.49 42.458 23.444 0 42.478-19.046 42.478-42.458-0.004-23.476-19.048-42.52-42.478-42.52zM490.774 277.976c5.852 0 11.168 2.396 15.036 6.228v0l297.474 297.51c3.876 3.84 6.228 9.154 6.228 15.024 0 11.728-9.524 21.248-21.244 21.248-5.866 0-11.188-2.37-15.036-6.216v0l-297.488-297.5c-3.836-3.86-6.23-9.144-6.23-15.006 0.002-11.754 9.52-21.288 21.26-21.288zM257.010 596.738c-11.698 0-21.228-9.504-21.228-21.25 0-11.736 9.532-21.252 21.228-21.252 11.768 0 21.262 9.516 21.262 21.252 0 11.746-9.494 21.25-21.262 21.25zM257.010 511.744c-11.698 0-21.228-9.514-21.228-21.252 0-11.736 9.532-21.248 21.228-21.248 11.768 0 21.262 9.516 21.262 21.248 0 11.738-9.494 21.252-21.262 21.252zM257.010 426.74c-11.698 0-21.228-9.506-21.228-21.272 0-11.7 9.532-21.222 21.228-21.222 11.768 0 21.262 9.524 21.262 21.222 0 11.766-9.494 21.272-21.262 21.272zM257.010 341.73c-11.698 0-21.228-9.5-21.228-21.238 0-11.736 9.532-21.228 21.228-21.228 11.768 0 21.262 9.492 21.262 21.228 0 11.738-9.494 21.238-21.262 21.238z" />
<glyph unicode="&#xe92a;" glyph-name="coupon-03" d="M279.858 856.598l485.292-249.228h74.618l-574.642 295.13-151.59-295.13h38.366zM977.648 498.272l-56.408-109.846v-74.628l102.31 199.174-102.31 52.552v-38.332zM494.948 368.646c0-18.835-15.269-34.104-34.104-34.104s-34.104 15.269-34.104 34.104c0 18.835 15.269 34.104 34.104 34.104s34.104-15.269 34.104-34.104zM716.622 198.12c0-18.835-15.269-34.104-34.104-34.104s-34.104 15.269-34.104 34.104c0 18.835 15.269 34.104 34.104 34.104s34.104-15.269 34.104-34.104zM831.548 573.266h-831.1v-579.766h886.69v579.764h-55.59zM239.172 27.602h-34.102v34.106h34.102v-34.106zM239.172 95.808h-34.102v34.104h34.102v-34.104zM239.172 164.016h-34.102v34.104h34.102v-34.104zM239.172 232.222h-34.102v34.104h34.102v-34.104zM239.172 300.43h-34.102v34.114h34.102v-34.114zM239.172 368.644h-34.102v34.106h34.102v-34.106zM239.172 436.852h-34.102v34.104h34.102v-34.104zM239.172 505.060h-34.102v34.104h34.102v-34.104zM392.638 368.644c0 37.618 30.592 68.208 68.208 68.208 37.652 0 68.208-30.59 68.208-68.208 0-37.616-30.556-68.214-68.208-68.214-37.616 0-68.208 30.6-68.208 68.214zM455.524 142.326l170.516 306.94 44.78-24.86-170.516-306.942-44.78 24.862zM682.518 129.912c-37.618 0-68.208 30.592-68.208 68.208s30.592 68.208 68.208 68.208c37.65 0 68.208-30.592 68.208-68.208s-30.558-68.208-68.208-68.208z" />
<glyph unicode="&#xe92b;" glyph-name="coupon-04" d="M60.62 900.090v-597.714c8.95-0.216 15.072-6.9 15.072-16.44 0-9.188-5.794-16.024-15.072-16.394v-167.174c33 0 59.744-26.744 59.744-59.754h311.218c0 33.010 26.742 59.754 59.744 59.754v167.534c-7.712 1.25-12.944 7.526-12.944 16.012 0 8.63 5.334 14.692 12.944 15.996v598.18c-33.002 0-59.744 26.764-59.744 59.744h-311.208c0-32.99-26.754-59.744-59.754-59.744zM455.346 285.922c0-9.436-6.022-16.514-15.714-16.514-9.176 0-15.48 7.078-15.48 16.514 0 9.698 6.562 16.53 15.736 16.53s15.458-6.832 15.458-16.53zM401.112 285.922c0-9.436-6.030-16.514-15.726-16.514-9.172 0-15.468 7.078-15.468 16.514 0 9.698 6.562 16.53 15.726 16.53 9.184 0 15.468-6.832 15.468-16.53zM346.878 285.922c0-9.436-6.030-16.514-15.726-16.514-9.184 0-15.45 7.078-15.45 16.514 0 9.698 6.542 16.53 15.716 16.53 9.164 0 15.46-6.832 15.46-16.53zM292.636 285.922c0-9.436-6.032-16.514-15.728-16.514-9.174 0-15.468 7.078-15.468 16.514 0 9.698 6.542 16.53 15.726 16.53s15.47-6.832 15.47-16.53zM238.402 285.922c0-9.436-6.032-16.514-15.726-16.514-9.174 0-15.45 7.078-15.45 16.514 0 9.698 6.552 16.53 15.714 16.53 9.186 0 15.462-6.832 15.462-16.53zM184.158 285.922c0-9.436-6.010-16.514-15.714-16.514-9.196 0-15.472 7.078-15.472 16.514 0 9.698 6.552 16.53 15.726 16.53s15.46-6.832 15.46-16.53zM129.936 285.922c0-9.436-6.032-16.514-15.736-16.514-9.174 0-15.452 7.078-15.452 16.514 0 9.698 6.542 16.53 15.716 16.53s15.472-6.832 15.472-16.53zM375.834 859.466v-186.27h-14.324v186.27h14.324zM347.618 859.466v-186.27h-14.764v186.27h14.764zM318.968 859.466v-186.27h-42.992v186.27h42.992zM261.204 859.466v-186.27h-13.882v186.27h13.882zM232.996 859.466v-186.27h-28.658v186.27h28.658zM189.554 859.466v-186.27h-13.884v186.27h13.884zM935.582 762.108l-280.236 135.352c-14.354-29.692-50.076-42.164-79.788-27.808l-42.020-87.006v-722.5h-42.212c-9.668 0-17.55-7.876-17.55-17.55v-42.206h-70.094l132.99-64.224c14.354 29.708 50.086 42.178 79.796 27.82l72.86 150.864c-6.388 4.486-8.376 12.408-4.68 20.062 3.748 7.754 11.18 10.886 18.594 8.76l260.138 538.636c-29.688 14.364-42.13 50.108-27.798 79.8zM566.228 192.108c-4.094-8.486-12.602-12.23-21.348-8.012-8.272 3.98-10.842 13.074-6.726 21.592 4.198 8.72 13.054 12.028 21.336 8.026 8.256-4.004 10.958-12.87 6.738-21.606zM738.502 745.828l-80.994-167.728-12.502 6.042 80.996 167.728 12.5-6.042zM661.488 783.024l12.512-6.040-81.018-167.728-12.502 6.030 81.008 167.738zM615.046 168.522c-4.086-8.512-12.602-12.238-21.338-8.040-8.27 4.002-10.852 13.106-6.736 21.608 4.218 8.728 13.074 12.028 21.348 8.036 8.274-3.974 10.966-12.894 6.726-21.604zM606.292 602.836l80.998 167.728 25.81-12.45-81.004-167.738-25.804 12.46zM663.904 144.928c-4.106-8.486-12.604-12.252-21.348-8.026-8.27 3.994-10.85 13.094-6.746 21.596 4.22 8.74 13.096 12.040 21.36 8.040 8.242-3.996 10.946-12.864 6.734-21.61zM670.804 571.67l81.010 167.728 38.702-18.684-81-167.74-38.712 18.696zM722.020 546.934l81.006 167.74 13.29-6.42-80.996-167.726-13.3 6.406zM760.732 528.24l-12.922 6.236 81.016 167.738 12.9-6.236-80.994-167.738z" />
<glyph unicode="&#xe92c;" glyph-name="gift-01" d="M121.13 396.694c-5.054 0.564-7.848 0.846-10.642 1.186-22.172 2.738-34.292 15.84-34.342 38.162-0.162 62.582-0.122 125.166 0.012 187.748 0.052 26.070 13.6 39.796 39.728 39.862 81.208 0.186 162.424 0.108 243.636 0.132 4.624 0 9.252 0 14.804 2.548-4.84 3.282-9.628 6.642-14.542 9.826-37.078 24.030-72.086 50.51-97.966 87-27.744 39.112-37.534 81.49-11.77 124.668 25.916 43.428 62.612 73.984 116.758 72.674 35.054-0.846 60.534-21.418 81.652-47.35 35.962-44.156 55.36-96.464 72.152-149.944 1.354-4.298 2.84-8.546 5.126-15.416 7.374 18.868 12.786 35.496 20.264 51.132 8.416 17.586 17.202 35.312 28.41 51.162 44.098 62.328 108.902 68.892 165.802 17.802 36.010-32.336 43.026-75.678 18.852-117.76-16.772-29.18-41.402-50.974-67.714-71.116-5.508-4.216-11.086-8.334-15.834-15.346 5.020 0 10.042 0 15.058 0 71.656 0 143.316 0.052 214.972-0.024 30.126-0.032 42.348-12.402 42.378-42.81 0.068-57.334 0.006-114.65 0.030-171.982 0.022-38.518-5.72-45.636-44.496-53.066 0-5.69 0-11.756 0-17.824 0-131.376 0.024-262.73-0.012-394.104-0.012-37.088-11.498-48.376-49.094-48.382-229.314-0.020-458.626-0.014-687.94 0-32.908 0.006-45.262 12.14-45.268 44.612-0.042 131.852-0.016 263.684-0.016 395.542 0.002 6.62 0.002 13.246 0.002 21.068zM447.232 7.572c0 141.452 0 281.098 0 422.030-5.848 0-10.558 0-15.25 0-74.52 0-149.044-0.294-223.56 0.286-12.884 0.098-16.916-3.056-16.87-16.532 0.52-130.406 0.312-260.794 0.356-391.208 0-4.65 0.448-9.304 0.714-14.576 85.42 0 169.708 0 254.61 0zM580.954 7.638c84.252 0 167.062 0 250.392 0 0 140.768 0 280.674 0 421.064-83.954 0-166.794 0-250.392 0 0-140.572 0-280.216 0-421.064zM147.99 473.208c100.562 0 199.68 0 299.52 0 0 39.852 0 78.746 0 118.090-100.294 0-199.708 0-299.52 0 0-39.756 0-78.288 0-118.090zM581.008 591.608c0-39.8 0-78.686 0-118.168 98.748 0 196.678 0 294.718 0 0 40.076 0 78.932 0 118.168-98.708 0-196.326 0-294.718 0zM464.382 699.15c-15.252 56.78-30.8 109.214-60.346 156.128-6.244 9.916-14.688 18.762-23.35 26.772-10.128 9.378-22.736 10.432-34.492 3.278-49.194-29.948-48.404-56.686-18.9-90.922 2.488-2.896 5.064-5.722 7.784-8.4 36.812-36.27 80.966-61.554 129.304-86.856zM588.054 701.588c1.732-1.502 3.462-3.016 5.202-4.516 28.014 20.998 56.408 41.528 83.832 63.288 8.346 6.63 14.836 16.11 20.582 25.284 2.964 4.73 4.536 12.218 3.116 17.494-6.614 24.574-44.706 34.486-61.118 15.558-29.23-33.718-39.808-75.772-51.614-117.108z" />
<glyph unicode="&#xe92d;" glyph-name="gift-02" d="M447.396 526.704h-367.79c-2.918 0-5.838-2.912-5.838-5.84v-577.954c-1.458-2.904 1.458-5.834 5.838-5.834h367.79c2.918 0 5.838 2.926 5.838 5.834v577.952c1.46 2.93-1.462 5.842-5.838 5.842zM571.45 520.862v-577.954c0-2.904 2.922-5.834 5.844-5.834h369.242c2.918 0 5.836 2.926 5.836 5.834v577.954c0 2.928-2.918 5.84-5.836 5.84h-367.794c-4.37 0.002-7.292-2.91-7.292-5.84zM1018.046 731.030h-293.35c-2.914 0-2.914 4.382 0 4.382 21.89 4.382 43.786 10.22 65.676 18.968 26.274 8.762 55.458 23.352 65.68 49.624 5.832 16.056 4.376 35.030-1.468 51.082-7.29 20.436-18.964 39.41-36.476 53.996-16.062 14.596-35.040 24.816-55.464 32.11-35.030 14.6-75.894 24.808-110.922 11.674-32.11-11.674-52.546-39.406-72.984-65.67-13.122-17.512-27.726-36.494-40.852-54.004-4.378-5.838-8.762-11.674-13.14-16.052-2.914-2.914-7.296-5.838-11.676-10.222-4.378 2.926-7.296 5.84-11.672 10.222-4.382 4.378-8.758 10.214-13.14 16.052-13.13 17.51-27.724 36.494-40.864 54.004-20.43 26.264-42.326 53.992-72.974 65.67-35.026 13.134-75.894 2.926-110.918-11.674-20.434-8.75-39.406-18.97-55.462-32.11-16.050-14.592-29.188-33.56-36.484-53.996-5.838-16.052-7.298-35.026-1.462-51.082 10.22-26.272 39.404-39.406 65.676-49.624 21.894-7.294 43.788-13.134 65.674-18.968 2.92 0 2.92-4.382 0-4.382h-293.35c-2.918 0-5.838-2.914-5.838-5.838v-137.188c0-2.924 2.918-5.834 5.838-5.834h439.3c2.918 0 5.838 2.912 5.838 5.834v132.804c0 0 0 0 0 1.47 2.92 0 7.302 0 10.212 0 14.6 0 29.194 1.456 42.328 5.834h10.214c13.136-4.38 27.726-5.834 42.324-5.834 2.926 0 7.304 0 10.218 0 0 0 0 0 0-1.47v-132.808c0-2.924 2.918-5.838 5.844-5.838h439.296c2.926 0 5.84 2.914 5.84 5.838v137.192c4.378 2.922 1.464 5.838-1.462 5.838zM548.098 774.814c2.914 4.382 5.836 10.218 10.214 14.59 24.812 36.492 49.628 75.898 90.488 94.87 5.844 2.924 11.676 5.838 18.984 7.294 16.042 5.84 33.558 11.674 51.082 8.762 14.59-1.456 27.722-8.762 40.856-16.054 10.226-5.838 20.438-13.13 24.816-23.348 5.836-11.676 5.836-26.278 0-37.948-4.378-11.676-13.14-23.352-21.894-33.57-5.84-5.84-17.512-8.752-24.808-13.132-7.292-4.382-16.050-7.296-24.812-8.76-53.996-13.134-105.078-16.046-159.082-7.294-2.922 0-7.292 1.456-8.75 4.382-0.008 4.37 1.448 7.286 2.906 10.208zM288.312 776.274c-7.298 4.378-18.972 7.292-24.81 13.13-8.758 10.216-17.514 20.436-21.896 33.568-4.376 11.676-5.836 26.274 0 37.95 5.838 10.216 14.598 17.512 24.812 23.348 13.14 7.294 26.274 14.598 40.868 16.052 17.512 1.46 35.030-2.922 51.082-8.76 5.84-2.914 11.674-4.37 18.97-7.294 40.868-18.968 67.134-58.376 90.488-94.87 2.918-4.372 5.84-10.208 10.216-14.59 1.458-2.922 2.92-5.836 2.92-8.762-1.462-2.914-4.382-4.378-8.758-4.378-54-8.752-105.082-5.836-159.080 7.304-8.758 1.462-17.514 4.388-24.812 7.302z" />
<glyph unicode="&#xe92e;" glyph-name="gift-03" d="M641.176 720.118l94.62 76.742-54.192 72.868-84.668-62.832 38.92 127.152-84.654 26.452-44.076-134.85-43.9 134.85-84.85-26.456 38.93-127.152-87.814 63.992-54.19-72.868 97.764-77.9h-254.682v-784.616h787.23v784.618h-264.438zM458.9 27.278h-257.336v383.616h257.336v-383.616zM458.9 502.53h-257.336v124.466h257.336v-124.466zM831.744 27.278h-280.214v383.616h280.214v-383.616zM831.744 502.53h-280.214v124.466h280.214v-124.466z" />
<glyph unicode="&#xe92f;" glyph-name="gift-04" d="M960.282 688.076h-168.392c15.928 27.304 25.032 59.162 25.032 92.158 0 95.574-80.782 179.768-172.94 179.768-52.338 0-100.126-23.892-133.122-60.302-32.992 36.408-81.916 60.3-134.254 60.3-93.296 0-174.078-84.194-174.078-179.768 0-34.132 9.102-64.852 25.032-92.158h-221.866v-752.074h1012.61v752.076h-58.022zM643.982 873.53c44.372 0 86.468-45.51 86.468-92.16 0-48.924-37.544-92.158-81.918-92.158h-93.298v101.26c0 43.236 42.1 83.058 88.748 83.058zM288.998 780.234c0 47.786 42.098 92.16 87.608 92.16 48.924 0 91.020-38.684 91.020-84.196v-101.26h-97.848c-47.786 1.138-80.78 50.062-80.78 93.296zM92.166 601.604h376.6v-577.996h-375.462v577.996h-1.138zM555.234 22.47v521.11l178.63-155.874 56.888 64.852-169.528 149.048h309.47v-577.996h-375.46v-1.14z" />
<glyph unicode="&#xe930;" glyph-name="gift-05" d="M20.54 711.312h128.060v-775.322h-128.060v775.322zM817.928 863.58c2.958 24.688-3.544 46.828-18.794 64.012-18.292 20.598-47.718 32.408-80.764 32.408-15.162 0-30.302-2.646-43.794-7.636-58.42-21.598-113.018-79.536-139.016-124.222-9.85-16.946-17.618-32.024-23.582-45.468-5.954 13.444-13.734 28.524-23.582 45.468-25.986 44.686-80.584 102.626-139.014 124.222-13.484 4.99-28.636 7.636-43.788 7.636-33.058 0-62.484-11.81-80.774-32.41-15.25-17.196-21.754-39.334-18.796-64.012 7.696-64.168 68.918-122.012 137.308-152.254h-165.112v-775.32h669.412v775.308h-166.984c68.376 30.244 129.596 88.1 137.28 152.268zM438.476 727.306c0 0-0.012 0-0.024 0-84.684 0.012-186.492 73.704-194.526 140.806-1.648 13.756 1.54 25.254 9.452 34.166 10.884 12.278 30.402 19.602 52.25 19.602 10.69 0 21.26-1.816 30.57-5.268 47.38-17.52 95.878-67.402 119.256-107.616 6.916-11.88 26.94-52.804 31.7-70.53-13.502-7.42-29.832-11.16-48.678-11.16zM536.846 738.454c4.76 17.738 24.794 58.648 31.686 70.506 23.404 40.238 71.89 90.12 119.27 107.642 9.308 3.438 19.89 5.266 30.582 5.266 21.826 0 41.344-7.324 52.238-19.6 7.924-8.912 11.098-20.408 9.464-34.164-8.046-67.116-109.854-140.808-194.54-140.808-18.878 0.010-35.22 3.762-48.7 11.158zM877.324 711.312h126.134v-775.322h-126.134v775.322z" />
<glyph unicode="&#xe931;" glyph-name="gift-06" d="M130.17 276.098h320.1v-340.562h-320.1v340.562zM130.17 710.8h320.1v-326.69h-320.1v326.69zM573.728 276.098h320.102v-340.562h-320.102v340.562zM573.728 710.8h320.102v-326.69h-320.102v326.69zM667.818 957.618c-7.362 1.89-14.936 2.846-22.492 2.846-59.65 0-107.328-58.994-134.21-102.104-26.898 43.112-74.576 102.104-134.226 102.104-7.554 0-15.12-0.946-22.49-2.846-67.708-17.366-129.904-81.592-127.97-132.194 1.084-28.66 20.814-49.14 52.75-54.782 18.75-3.31 44.272-4.988 75.886-4.988h0.010c71.544 0 151.728 8.296 156.040 8.77 4.308-0.462 84.49-8.77 156.046-8.77 31.604 0 57.134 1.676 75.884 4.988 31.948 5.64 51.676 26.112 52.75 54.782 1.934 50.59-60.258 114.828-127.978 132.194zM355.066 823.64c-28.24 0-50.386 1.386-65.806 4.106-2.342 0.418-3.9 0.902-4.888 1.29 1.396 12.734 31.582 58.864 84.418 72.404 31.54 8.080 68.126-34.546 92.596-73.178-29.478-2.236-69.55-4.622-106.32-4.622zM732.968 827.746c-15.432-2.718-37.568-4.106-65.806-4.106-36.816 0-76.896 2.396-106.382 4.63 24.404 38.63 61.080 81.258 92.65 73.168 52.836-13.54 83.032-59.68 84.416-72.404-0.988-0.386-2.534-0.88-4.878-1.288z" />
<glyph unicode="&#xe932;" glyph-name="gift-07" d="M899.172-64.002h-774.344v774.374h774.344v-774.374zM166.686-22.144h690.628v690.66h-690.628v-690.66zM396.894 668.514h230.21v-690.66h-230.21v690.66zM600.148 762.692c0-41.176-27.822-94.178-62.134-94.178h-49.694c-34.324 0-62.146 53-62.146 94.178v0c0 41.176 27.822 94.176 62.146 94.176h49.694c34.312 0.002 62.134-53 62.134-94.176v0zM772.576 949.81c-102.212 50.98-204.31-100.8-258.18-200.744 23.062-36.938 36.896-63.936 36.896-63.936-24.652-2.804-48.25-4.228-70.852-4.666-3.33-7.41-5.096-11.626-5.096-11.626 233.496-8.34 369.99 92.054 369.99 92.054s75.968 114.76-72.758 188.918zM772.91 812.208c0 0-43.382-31.914-117.594-29.268 0 0 47.194 112.898 94.478 89.312 47.268-23.566 23.116-60.044 23.116-60.044zM233.174 942.224c-142.542-85.482-57.91-193.974-57.91-193.974s114.99-71.438 305.176-67.786c6.234 13.876 17.976 38.958 33.956 68.602-59.080 94.67-178.706 254.656-281.222 193.158zM253.38 812.208c0 0-24.162 36.468 23.116 60.044 47.298 23.586 94.48-89.312 94.48-89.312-74.202-2.638-117.596 29.268-117.596 29.268zM514.396 749.068c-15.978-29.644-27.72-54.728-33.956-68.602 22.602 0.44 46.2 1.862 70.852 4.666 0 0-13.834 26.996-36.896 63.936z" />
<glyph unicode="&#xe933;" glyph-name="gift-08" d="M150.050 647.954c-16.618-16.786-22.496-31.56-22.55-45.172-0.402-21.134 16.452-48.244 57.396-74.4 33.958-21.772 83.118-41.76 145.016-56.84h5.186c-15.206 62.536-36.094 111.38-58.906 144.74-26.89 39.334-54.846 55.634-77.536 55.372-15.298-0.054-31.252-6.472-48.578-23.7zM448.11 601.812c-15.94-28.59-31.116-72.1-44.282-130.27h6.554c55.484 12.904 97.284 27.61 124.962 43.050 34.302 19.306 44.406 36.52 44.226 50.782 0.236 12.17-7.746 30.036-29.228 51.408-21.402 21.526-39.24 29.48-51.436 29.258-14.276 0.18-31.5-9.922-50.796-44.228zM162.484 493.358c-46.39 29.69-76.19 66.46-76.592 109.424-0.056 26.864 12.654 52.642 34.734 74.542h-0.014c0.014 0 0.014 0.014 0.028 0.014 0 0 0 0 0.016 0 22.77 22.966 49.878 35.966 78 35.884 42.788-0.262 81.026-28.302 111.852-73.514 13.236-19.432 25.334-42.55 36.204-68.816v388.178h-345.81v-487.528h201.29c-14.456 6.888-27.736 14.178-39.708 21.816zM252.184 162.708c-0.262-28.54 7.11-48.442 15.15-55.15 8.452-7.762 8.98-20.914 1.232-29.37-4.116-4.45-9.702-6.694-15.3-6.694-5.032 0-10.078 1.814-14.068 5.486-21.942 20.888-28.33 51.686-28.594 85.74 0.876 80.998 39.96 191.716 107.75 261.708h-317.452v-487.488h345.808v457.58c-56.742-60.222-95.414-164.322-94.526-231.812zM411.754 621.98c21.746 39.64 50.756 65.476 87.138 65.642 29.122-0.208 55.512-16.216 80.846-41.428 25.212-25.306 41.194-51.698 41.428-80.818-0.206-36.396-26.030-65.364-65.64-87.136-4.142-2.288-8.566-4.492-13.070-6.696h480.642v487.526h-629.25v-375.704c5.654 14.248 11.6 27.206 17.906 38.614zM543.028 208.078c4.004-10.752-1.47-22.72-12.256-26.728-2.396-0.886-4.852-1.316-7.248-1.316-8.428 0-16.37 5.17-19.474 13.538-43.050 115.296-83.176 173.69-110.216 202.768v-459.408h629.25v487.488h-598.634c31.964-34.416 74.568-98.2 118.578-216.342z" />
<glyph unicode="&#xe934;" glyph-name="gift-09" d="M291.364 315.736l190.398-56.026v259.17l-190.398 54.566zM223.084 335.824v257.192l-184.208 52.786v-255.744zM291.364 245.726v-257.218l190.398-54.554v255.73zM223.084 265.806l-184.208 54.208v-259.148l184.208-52.786zM815.2 340.112l169.926 50.018v255.672l-169.926-48.696zM746.93 320.002v257.54l-204.692-58.662v-259.108zM815.2 270.080v-257.892l169.926 48.678v259.228zM746.93 250.002l-204.692-60.238v-255.81l204.692 58.642zM751.536 906.792c-168.114 168.126-224.078-90.864-239.652-200.078-15.59 109.204-71.57 368.192-239.688 200.078-151.886-151.888 44.792-212.228 164.74-233.962-62.958-16.664-151.314-19.438-151.314-19.438l71.91-25.392-38.066-29.624c93.574-15.596 183.482 47.818 197.014 57.868 24.582-17.088 106.468-67.958 191.342-53.8l-38.080 29.612 71.914 25.378c0 0-81.374 2.556-143.566 17.5 120.44 23.426 300.644 84.656 153.446 231.858zM307.96 870.056c144.274 144.268 168.552-168.54 168.552-168.54s-312.804 24.262-168.552 168.54zM544.46 701.516c0 0 24.284 312.808 168.542 168.54 144.26-144.278-168.542-168.54-168.542-168.54z" />
<glyph unicode="&#xe935;" glyph-name="gift-10" d="M678.056 861.592l-166.3 96.408-171.336-99.316 164.952-97.202zM268.584 718.282c16.39 0 75.154 0 111.56 0 0 0-34.874 36.476-86.502 36.476-36.362 0-57.796-10.042-70.292-20.572 0.034-0.024 5.634-15.904 45.234-15.904zM302.368 643.786c-11.904-0.42-22.844-0.66-32.284-0.66-74.086 0-63.432 67.124-63.432 67.124l14.87 79.492-154.374-87.786v-171.3l20.174-11.632v-336.324l149.898-87.14v510.468l65.148 37.758zM797.422 734.060c-12.472 10.586-34.384 26.444-70.428 20.696-42.612-6.804-79.188-36.476-79.188-36.476 36.508 0 89.172 0 104.55 0 31.15 0.002 43.316 14.564 45.066 15.78zM956.852 699.902l-158.068 91.716 15.532-81.356c0 0 10.64-67.122-63.434-67.122-13.14 0-29.204 0.464-46.72 1.226l76.642-45.324v-506.648l155.384 90.316v336.054l20.664 11.904v169.234zM569.792 608.652l8.644-110.3-68.328 32.316-67.168-32.316 7.384 105.438-107.188-62.148v-505.546l168.62-100.096 171.39 99.62v507.51z" />
<glyph unicode="&#xe936;" glyph-name="gift-11" d="M839.67 74.012l143.388 53.902v418.448l-143.388-53.904zM697.626 875.398l-185.626 69.77-185.636-69.77 185.636-69.788zM839.682 821.974l-185.614-69.766 185.602-69.744v-162.94l185.578 69.768v162.938zM184.308 821.974l-185.558-69.744v-162.938l185.592-69.768v162.94l185.59 69.744zM326.398 629.062v-162.948l185.602-69.77 185.602 69.77v162.948l-185.602 69.758zM40.94 127.914l143.402-53.902v418.446l-143.402 53.904zM326.398 439.046v-418.446l185.602-69.768 185.602 69.768v418.446l-185.602-69.768z" />
<glyph unicode="&#xe937;" glyph-name="home-01" d="M852.73 657v216.906h-127.782v-89.13l127.782-127.776zM1023.094 405.406l-511.096 511.090-511.092-511.090h127.774v-425.902h298.136v212.948h170.366v-212.948h298.144v425.902h127.768zM810.132 64.686h-127.772v212.948h-340.728v-212.95h-127.772v436.968l298.138 294.39 298.136-297.696v-433.66z" />
<glyph unicode="&#xe938;" glyph-name="home-02" d="M879.964-23.766v394.486l-367.978 321.814-367.95-321.814v-394.486h280.29v296.444h173.022v-296.444zM807.28 862.096h-115.358v-102.666l-179.936 160.336-513.282-457.924 77.28-86.508 436.002 389.872 436.028-389.872 77.282 86.508-218.016 194.936z" />
<glyph unicode="&#xe939;" glyph-name="home-03" d="M512 588.438l298.664-277.938v-268.832h-128v213.332h-341.332v-213.332h-128v268.832l298.668 277.938zM512 705l-384-357.332v-391.336h298.664v213.336h170.668v-213.336h298.668v391.336l-384 357.332zM1024 462.022l-512 475.644-512-475 58.064-62.498 453.936 421.020 453.918-421.688 58.082 62.522z" />
<glyph unicode="&#xe93a;" glyph-name="home-04" d="M409.866 13.934v306.4h204.266v-306.4h255.332v408.53h153.202l-510.664 459.602-510.668-459.602h153.2v-408.532h255.332z" />
<glyph unicode="&#xe93b;" glyph-name="home-05" d="M894.938 405.45v-425.482h-255.292v255.29h-255.292v-255.292h-255.292v425.484h-127.646l510.584 510.586 510.584-510.586h-127.646zM852.388 656.794v216.692h-127.646v-89.046l127.646-127.646z" />
<glyph unicode="&#xe93c;" glyph-name="home-06" d="M1002.714 516.616l-155.216 118.584v188.132c0 13.15-10.66 23.812-23.81 23.812h-112.924c-13.148 0-23.812-10.662-23.812-23.812v-65.516l-156.046 119.22c-10.444 7.992-27.368 7.992-37.812 0l-471.81-360.42c-23.188-17.698-27.62-50.864-9.91-74.052 17.708-23.188 50.862-27.64 74.072-9.898l407.648 311.386c10.446 7.992 27.37 7.992 37.812 0l407.66-311.386c23.188-17.742 56.32-13.29 74.050 9.898 17.73 23.176 13.288 56.354-9.902 74.052zM493.092 686.972l-366.186-279.71v-295.942c0-54.32 44.044-98.352 98.364-98.352h161.398v154.706c0 69.22 56.116 125.324 125.35 125.324 69.216 0 125.332-56.118 125.332-125.324v-154.706h161.366c54.318 0 98.396 44.032 98.396 98.352v295.942l-366.208 279.71c-10.444 7.99-27.366 7.99-37.812 0z" />
<glyph unicode="&#xe93d;" glyph-name="mail-01" d="M1000.107 808.1c-14.612 14.662-35.137 23.915-57.553 23.902h-861.099c-22.421 0.010-42.951-9.241-57.553-23.902-14.662-14.602-23.912-35.129-23.902-57.555v-605.082c-0.010-22.431 9.241-42.956 23.902-57.563 14.602-14.659 35.132-23.912 57.553-23.897h861.097c22.421-0.015 42.941 9.238 57.553 23.897 14.652 14.607 23.912 35.152 23.893 57.563v605.082c0.022 22.426-9.241 42.953-23.89 57.555zM954.184 186.969l-276.475 255.215 276.475 255.21v-510.424zM81.455 762.189h861.097c3.174-0.022 5.918-1.223 8.185-3.45 0.219-0.221 0.301-0.49 0.487-0.721l-383.523-354.026c-11.947-11.090-28.66-17.077-45.67-17.070-16.396-0.007-32.46 5.552-44.251 15.937l-404.806 355.452c0.119 0.139 0.164 0.288 0.278 0.43 2.279 2.224 5.026 3.425 8.202 3.447zM69.821 185.222v513.926l292.643-256.964-292.643-256.962zM81.818 133.821l315.916 277.387 49.341-43.329c21.248-18.633 48.267-27.494 74.948-27.501 27.66 0.010 55.664 9.557 77.232 29.408l44.136 40.719 299.627-276.594c-0.159 0-0.281-0.089-0.467-0.089h-860.734z" />
<glyph unicode="&#xe93e;" glyph-name="mail-02" d="M0 798.064v-700.118c0-20.217 17.328-37.538 37.538-37.538h949.852c20.207 0 37.525 17.321 37.525 37.538v700.118c0 20.204-17.319 37.528-37.525 37.528h-949.852c-20.209-1.442-37.538-17.321-37.538-37.528zM968.624 155.683c10.103-8.657 12.979-24.536 5.769-36.084-10.098-14.44-28.868-17.323-41.855-5.769l-310.366 274.268c-14.443 12.991-36.094 12.991-49.080 0l-47.633-41.867c-5.784-4.327-11.555-7.213-18.773-7.213-7.22 0-12.996 2.883-18.768 7.213l-46.194 41.867c-14.435 12.991-36.091 12.991-49.080 0l-300.258-265.614c-11.547-10.108-28.868-8.654-38.977 2.891-10.101 11.547-8.662 28.866 2.888 38.974l288.711 255.503c17.319 14.443 17.319 40.418 0 56.298l-288.711 254.069c-10.101 8.657-12.989 24.536-5.774 36.086 10.106 14.44 28.873 17.321 41.865 5.774l389.759-346.455c14.433-12.991 36.086-12.991 49.075 0l401.314 355.119c12.986 11.547 33.198 8.657 41.857-5.774 7.21-11.555 4.332-27.427-5.766-36.091l-297.38-264.172c-17.323-14.435-17.323-40.416 0-56.295l297.378-262.728z" />
<glyph unicode="&#xe93f;" glyph-name="mail-03" d="M938.112 746.278v-596.556h-852.222v596.556h852.222zM1023.334 831.5h-1022.666v-767h1022.666v767zM938.112 149.722l-278.054 282.008-146.832-148.432-145.642 150.22-281.696-283.796 215.22 340.892-215.218 255.666 427.336-317.274 424.884 317.272-212.972-256.080 212.974-340.476z" />
<glyph unicode="&#xe940;" glyph-name="mail-04" d="M512 417.582l-511.354 414.418h1022.686l-511.332-414.418zM512 307.75l-512 414.938v-658.688h1024v658.688l-512-414.938z" />
<glyph unicode="&#xe941;" glyph-name="mail-05" d="M811.154 574.396c0 0-221.696 14.23-299.154-82.826 85.474 209.24 299.154 253.768 299.154 253.768v85.472l213.682-170.942-213.682-171.762v86.29zM0.272-64h1023.396l-511.668 496.036-511.728-496.036zM71.784 534.308l439.8 319.998 130.462-94.78c30.426 19.616 59.43 34.412 83.47 45.056l-213.932 155.418-512.418-372.878v-533.178l314.2 304.578-241.582 175.786zM745.004 325.216l279.832-271.274v496.266l-279.832-224.992z" />
<glyph unicode="&#xe942;" glyph-name="mail-07" d="M999.439 733.684h-601.667c-17.311 0-36.071-17.311-40.396-37.515l-111.099-496.334c-4.327-21.641 5.771-37.52 23.087-37.52h603.101c17.323 0 36.074 17.316 40.411 37.52l111.082 496.334c2.893 20.204-7.205 37.515-24.519 37.515zM875.356 264.761c7.208-12.989 1.437-33.181-12.986-44.723-11.545-8.657-24.536-5.776-31.744 4.32l-105.328 173.145c-2.883 4.327-10.096 4.327-15.882 0l-80.787-76.472c-5.771-5.776-12.994-8.659-18.758-8.659-5.781 0-11.542 2.891-15.874 8.659l-46.167 76.472c-2.888 4.327-10.108 4.327-15.874 0l-196.228-186.124c-10.096-10.098-24.526-12.989-33.186-4.33-10.098 10.098-5.771 31.742 7.215 44.725l197.667 187.573c5.776 4.322 7.213 12.986 4.33 18.755l-113.985 186.122c-5.774 10.103-4.327 25.973 4.33 38.957 12.989 14.433 30.302 15.872 37.515 4.33l178.912-292.891c2.888-4.33 10.101-4.33 15.874 0l295.774 277.022c10.106 10.101 24.536 12.984 33.193 4.33 10.093-10.101 5.756-31.744-7.218-44.728l-183.236-174.582c-5.786-4.332-7.213-12.991-4.33-18.758l106.772-173.143zM237.618 665.871h-132.74c-15.872 0-28.853-12.981-28.853-28.856 0-15.872 12.981-28.856 28.853-28.856h132.74c15.874 0 28.858 12.984 28.858 28.856 0 15.874-12.981 28.856-28.858 28.856zM220.304 476.858h-176.024c-15.87 0-28.856-12.981-28.856-28.856 0-15.872 12.986-28.851 28.856-28.851h176.024c15.874 0 28.858 12.981 28.858 28.851 1.444 15.874-11.545 28.856-28.858 28.856zM161.151 287.853h-132.74c-15.872 0-28.858-12.996-28.858-28.868 0-15.865 12.989-28.851 28.858-28.851h132.74c15.872 0 28.853 12.994 28.853 28.851 0 15.877-12.981 28.868-28.853 28.868z" />
<glyph unicode="&#xe943;" glyph-name="mail-08" d="M627.262 131.022h-476.225c-84.139 0-152.613 68.456-152.613 152.596v328.766c0 84.142 68.459 152.593 152.613 152.593h476.225c84.144 0 152.606-68.449 152.606-152.593 0-13.521-10.961-24.469-24.489-24.469-13.516 0-24.484 10.946-24.484 24.469 0 57.148-46.49 103.64-103.638 103.64h-476.22c-57.148 0-103.655-46.495-103.655-103.64v-328.766c0-57.15 46.507-103.63 103.655-103.63h476.225c57.148 0 103.638 46.48 103.638 103.63 0 13.526 10.963 24.484 24.484 24.484 13.523 0 24.491-10.951 24.491-24.484-0.030-84.139-68.469-152.596-152.613-152.596zM1001.092 425.328h-342.685c-13.518 0-24.487 10.946-24.487 24.484 0 13.521 10.963 24.469 24.487 24.469h342.685c13.508 0 24.484-10.946 24.484-24.469 0-13.538-10.976-24.484-24.484-24.484zM1001.092 425.328c-6.48 0-12.976 2.555-17.793 7.655l-135.996 143.758c-9.273 9.82-8.853 25.314 0.959 34.617 9.84 9.273 25.324 8.853 34.617-0.957l136.011-143.77c9.276-9.822 8.856-25.314-0.974-34.615-4.737-4.469-10.782-6.688-16.824-6.688zM865.096 281.56c-6.045 0-12.084 2.219-16.834 6.688-9.81 9.291-10.233 24.792-0.959 34.617l135.996 143.783c9.303 9.837 24.802 10.23 34.617 0.957 9.827-9.278 10.25-24.777 0.974-34.602l-136.011-143.783c-4.822-5.105-11.316-7.66-17.783-7.66zM389.61 335.571c-6.007 0-12.007 2.197-16.725 6.636l-266.528 249.821c-9.86 9.251-10.382 24.75-1.123 34.602 9.268 9.87 24.77 10.344 34.59 1.111l266.528-249.839c9.865-9.233 10.372-24.738 1.128-34.587-4.834-5.142-11.361-7.745-17.87-7.745zM123.081 265.241c-6.345 0-12.678 2.446-17.475 7.354-9.467 9.651-9.305 25.155 0.343 34.62l165.888 162.625c9.678 9.477 25.153 9.305 34.612-0.336 9.465-9.656 9.303-25.158-0.338-34.632l-165.898-162.632c-4.765-4.68-10.948-6.999-17.132-6.999zM389.61 335.571c-6.442 0-12.872 2.533-17.689 7.563-9.338 9.77-9.010 25.257 0.768 34.605l261.095 249.839c9.77 9.33 25.24 9.005 34.605-0.763 9.333-9.783 9.022-25.269-0.758-34.617l-261.098-249.841c-4.752-4.538-10.834-6.785-16.923-6.785zM667.024 265.241c-6.184 0-12.37 2.334-17.137 6.999l-165.903 162.632c-9.668 9.474-9.84 24.974-0.353 34.617 9.462 9.656 24.946 9.81 34.62 0.338l165.903-162.635c9.673-9.457 9.822-24.956 0.341-34.597-4.789-4.909-11.132-7.354-17.47-7.354z" />
<glyph unicode="&#xe944;" glyph-name="mail-09" d="M1022.586 940.512c-0.298 0.865-0.403 1.638-0.763 2.451-1.536 3.328-3.532 6.445-6.485 9.002-0.415 0.36-0.927 0.452-1.327 0.761-0.256 0.214-0.308 0.517-0.572 0.671-0.507 0.358-1.118 0.251-1.628 0.567-3.276 1.986-6.738 3.159-10.429 3.572-0.701 0.055-1.382 0.311-2.103 0.311-4.24 0.107-8.363-0.92-12.213-2.958-0.358-0.159-0.716-0.052-1.064-0.263l-971.184-562.261c-8.687-5.060-13.645-14.729-12.574-24.698 1.026-10.011 7.767-18.454 17.331-21.616l294.569-98.197 98.192-294.569c0.206-0.567 0.768-0.82 0.969-1.332 1.685-4.193 4.091-8.12 7.924-10.981 0.050-0.055 0.157 0 0.256-0.104 4.302-3.174 9.509-5.063 15.077-5.063 0.505 0 1.076 0 1.583 0.055 0.669 0.050 1.121 0.614 1.802 0.716 4.074 0.559 7.814 2.145 11.239 4.645 1.178 0.872 2.197 1.588 3.211 2.657 0.825 0.823 1.906 1.225 2.622 2.152l145.055 193.407 233.338-99.303c3.221-1.387 6.691-2.103 10.071-2.103 0.214 0 0.36 0.157 0.507 0.157 4.039 0.057 8.028 0.972 11.602 2.92 6.91 3.728 11.706 10.372 13.039 18.032l153.349 868.956c0.089 0.51-0.209 0.974-0.159 1.481 0.413 3.673 0 7.364-1.235 10.936zM798.561 696.027l-331.687-464.314c-2.142-2.968-3.427-6.246-4.146-9.614 0-0.057-0.089-0.154-0.089-0.201l-32.258-161.213-66.809 200.408 434.989 434.934zM483.688 66.756l22.652 113.321 47.228-20.085-69.881-93.236z" />
<glyph unicode="&#xe945;" glyph-name="pin-01" d="M512.038 392.126c105.892 0 191.994 86.148 191.994 192.002s-86.102 192-191.994 192c-105.89 0-192-86.114-192-192s86.11-192.002 192-192.002zM512.038 744.122c88.256 0 159.996-71.736 159.996-159.996 0-88.258-71.74-160.004-159.996-160.004-88.258 0-159.998 71.748-159.998 160.004 0 88.258 71.74 159.996 159.998 159.996zM511.972 960c-211.776 0-384-170.112-384-384.032 0-223.994 192.032-453.15 332.028-614.212 0.514-0.638 22.98-25.756 50.75-25.756 0.066 0 2.334 0 2.466 0 27.744 0 50.24 25.118 50.756 25.756 140.058 161.062 332.052 390.18 332.052 614.212 0.002 213.92-172.242 384.032-384.052 384.032zM515.714 3.748c-0.668-0.646-2.626-2.054-4.32-3.14-0.32 0.866-2.686 2.752-4.128 4.256-117.276 134.942-315.294 362.692-315.294 571.104 0 176.444 143.58 320.028 320 320.028 176.512 0 320.060-143.584 320.060-320.064 0.002-208.376-198.010-436.126-316.318-572.184z" />
<glyph unicode="&#xe946;" glyph-name="pin-02" d="M512.006 957.344c-188.926 0-342.078-153.15-342.078-342.068s218-530.276 342.078-676.62c123.802 146.366 342.066 487.702 342.066 676.62s-153.148 342.068-342.066 342.068zM512.006 423.59c-106.366 0-192.586 86.22-192.586 192.584 0 106.368 86.22 192.586 192.586 192.586 106.356 0 192.586-86.22 192.586-192.586 0-106.364-86.23-192.584-192.586-192.584z" />
<glyph unicode="&#xe947;" glyph-name="pin-03" d="M512 871.75c135.402 0 254.25-110.944 254.25-237.388 0-131.054-105.648-302.232-254.25-536.536-148.602 234.304-254.25 405.482-254.25 536.536 0 126.444 118.828 237.388 254.25 237.388zM512 956.5c-177.9 0-339-144.196-339-322.138 0-177.878 147.008-390.292 339-694.862 192.012 304.57 339 516.984 339 694.862 0 177.942-161.056 322.138-339 322.138zM512 490.376c-70.226 0-127.126 56.9-127.126 127.126s56.9 127.124 127.126 127.124 127.126-56.9 127.126-127.126-56.9-127.124-127.126-127.124z" />
<glyph unicode="&#xe948;" glyph-name="pin-04" d="M512 958c-178.426 0-340-144.62-340-323.086 0-178.406 147.442-391.446 340-696.914 192.578 305.468 340 518.508 340 696.914 0 178.466-161.534 323.086-340 323.086zM512 363c-140.844 0-255 114.156-255 255s114.156 255 255 255c140.864 0 255-114.156 255-255s-114.136-255-255-255z" />
<glyph unicode="&#xe949;" glyph-name="pin-05" d="M511.99 957.358c-234.37 0-424.446-186.552-424.446-416.61 0-233.684 185.706-393.4 424.446-602.106 238.762 208.708 424.466 368.422 424.466 602.108 0 230.056-190.098 416.608-424.466 416.608zM511.99 193.32c-187.548 0-339.552 152.044-339.552 339.572s152.004 339.572 339.552 339.572c187.566 0 339.572-152.044 339.572-339.572s-152.006-339.572-339.572-339.572z" />
<glyph unicode="&#xe94a;" glyph-name="pin-06" d="M512 960c-134.314 0-256-108.918-256-243.292 0-134.312 111.020-294.71 256-524.71 145 230 256 390.398 256 524.71 0 134.374-121.666 243.292-256 243.292zM512 618.666c-47.146 0-85.334 38.188-85.334 85.334 0 47.144 38.188 85.334 85.334 85.334 47.168 0 85.334-38.188 85.334-85.334s-38.166-85.334-85.334-85.334zM853.334 106.664c0-94.25-152.792-170.666-341.334-170.666s-341.334 76.416-341.334 170.666c0 68.334 80.562 127.17 196.604 154.416l49.25-77.83c-17.126-2.918-34.396-5.754-50.27-10.334-141.314-40.502-147.334-90-0.898-132.334 89.086-25.752 203.816-25.834 293.314 0.040 154.416 44.668 135.002 97.042-11.458 135.126-12.624 3.25-26.496 5-39.956 7.292l49.332 78c116.166-27.206 196.75-86.042 196.75-154.376z" />
<glyph unicode="&#xe94b;" glyph-name="pin-07" d="M512 832c90.923 0 170.667-73.813 170.667-157.952 0-87.467-73.131-210.816-170.667-365.269-97.536 154.453-170.667 277.803-170.667 365.269 0 84.139 79.744 157.952 170.667 157.952zM512 917.333c-134.315 0-256-108.928-256-243.285 0-134.315 111.019-294.699 256-524.715 144.981 230.016 256 390.4 256 524.715 0 134.357-121.643 243.285-256 243.285zM512 576c-47.147 0-85.333 38.187-85.333 85.333s38.187 85.333 85.333 85.333 85.333-38.187 85.333-85.333-38.187-85.333-85.333-85.333zM853.333 320h-133.76c-16.427-27.349-34.048-55.851-52.565-85.333h133.589l21.333-42.667h-181.931l-14.677-23.211-12.331-19.456h23.808l36.608-85.333h-319.488l36.608 85.333h20.437l-12.331 19.456-14.635 23.211h-87.125l-43.136 42.667h103.253c-18.56 29.483-36.181 57.984-52.565 85.333h-133.76l-170.667-341.333h1024l-170.667 341.333zM307.456 64h-169.387l75.264 150.528 64.683-65.195h66.091l-36.651-85.333zM683.264 149.333h160l42.667-85.333h-166.059l-36.608 85.333z" />
<glyph unicode="&#xe94c;" glyph-name="pin-08" d="M512 958.5c-133.92 0-255.25-108.598-255.25-242.58 0-199.164 203.484-220.226 255.25-523.17 51.766 302.944 255.25 324.006 255.25 523.17 0 133.982-121.308 242.58-255.25 242.58zM512 618.166c-47.006 0-85.084 38.078-85.084 85.084s38.078 85.084 85.084 85.084c47.030 0 85.082-38.078 85.082-85.084s-38.052-85.084-85.082-85.084zM1022.5-62.5l-285.326 103.238-225.174-103.238-237.426 103.238-273.074-103.238 170.166 382.876 168.46 67.384c16.164-21.936 31.536-45.948 45.142-73.532l-149.874-59.994-73.388-165.098 113.666 43 64.084 114.292-27.024-129.496 178.204-76.066 21.064 85.954 19.778-86.124 176.56 80.428-26.294 129.040 66.844-123.22 116.24-42.084-73.948 169.21-152.384 60.24c13.584 27.626 28.996 51.682 45.202 73.618l171.078-67.552 167.424-382.876z" />
<glyph unicode="&#xe94d;" glyph-name="pin-09" d="M479.55 651.048c-0.168 0.374-12.262 0.728-10.222 3.31l5.85 3.624c0.542 3.288 3.058 6.91-0.312 12.966l2 5.328-4.248-1.228c0 0 5.994 25.832 14.050 14.154l-3.392-3.976c5.204-5.204 6.596-18.15 8.304-26.56 4.912-2.56 12.53-3.018 3.746-7.452 4.518 0.77-23.916-12.198-27.62-6.868-2.766 3.246 12.28 5.412 11.844 6.702zM449.078 657.812c-3.292-3.33 0.124-5.454 3.494-3.996 4.872 2.124 11.47 2.040 12.116 8.618l3.102 3.87-4.308 5.746c-2.562 0.52-4.246-2.728-5.828-4.040l-2.808-0.73-2.644-3.412 0.292-1.874-3.416-4.182zM747.456 267.038l-31.22 51.414-30.89 50.534c-31.098 50.914-59.116 97.040-83.594 140.522l-2.956-2.852c-16.028-6.662-40.172 21.688-57.074 22.646 8.16-1.29 0.75 20.878 0.75 22.334-6.496 8.056-47.876-0.894-58.74-2.352-20.42-2.684-41.73-2.436-57.366-15.132-11.012-8.95-11.176-23.5-22.356-30.514-7.244-4.516-15.174-3.082-21.396-8.908-10.99-10.448-23.562-25.874-29.7-39.612-2.644-5.744 3.29-19.524 1.83-26.934-14.32-45.292 3.624-108.194 58.616-115.146 13.298-1.666 27.206-8.908 40.712-4.87 10.74 3.248 20.208 10.574 31.762 11.446 16.070 1.084 9.37-22.562 31.41-16.152 10.7 3.166 15.548-7.326 15.548-15.318-3.58-16.65-11.404-25.976 3.766-37.632 10.326-7.992 18.818-19.442 20.732-33.262 1.084-7.742 8.328-21.064-0.666-25.686-6.328-3.162-11.032-21.564-10.948-27.642 1.29-7.036 15.528-20.482 19.856-26.474 6.246-8.492 1.668-18.566 6.744-28.268 5.204-9.866 10.074-17.444 13.738-27.476 4.746-13.818 40.88 0.292 49.292 0.252 28.724-0.168 43.25 40.256 63.398 52.658 11.37 6.994 8.204 26.228 21.776 36.136 12.572 9.158 25.894 14.654 27.056 31.554 0.916 14.696-10.99 45.292-4.41 57.7l4.33 7.034zM436.256 597.846c1.746-7.35-5.080-27.498-6.58-33.91-1.308-5.87 18.86-9.616 17.694-12.572 0.168 0.354 27.374 9.386 30.058 11.74l6.138 13.758c5.164 3.456 10.572 6.224 16.36 8.346l6.994 12.156c2.394 0.896 30.264 5.246 32.222 4.31 7.036-3.184 19.98-16.59 24.892-22.626l1.75-1.374c-13.906 28.56-25.184 56.014-33.968 82.784l-3.542-1.52c-9.45 0-22.502-10.7-28.264-17.276-4.042-4.434-28.52-14.364-31.204-14.072 14.068-1.498 13.382-11.76 12.282-20.542-2.892-20.296-46.706-1.502-44.832-9.202zM901.066 382.602c-11.82-204.9-181.296-367.588-389.194-367.588-110.96 0-211.060 46.33-282.124 120.64-8.428 8.868-14.734 29.85-0.854 38.384l14.116 3.618c11.052 9.37-10.304 47.376-1.874 53.454 26.308 18.816 13.82 41.88-2.354 60.904-6.85 8.12-44.46 46.918-48.708 39.924 3.144 10.658-6.826 36.258-12.884 46.376-10.176 16.982-23.582 27.388-28.954 46.040-2.124 7.454-2.124 30.038-6.514 35.242-1.75 2.144-15.258 7.888-14.8 10.948 13.010 77.596 48.896 147.41 100.788 202.546l34.988 14.050c21.958 32.95 23.228 7.39 42.982 15.986 6.558 0 14.112 27.038 21.126 31.284 12.324 7.89 2.916 7.89 0.644 11.532-4.766 7.826 102.784 47 104.574 39.964 1.458-5.954-53.242-34.47-47.228-33.574-13.902-1.832-16.546-26.728-13.988-26.644 6.954 0.208 50.392 32.992 70.646 25.998 19.858-6.87 55.448 15.778 69.354 27.288l1.708 1.604c1.228 32.45 8.304 63.694 20.502 92.604l-21.018 1.106c-258.976 0-468.914-209.938-468.914-468.916 0-258.976 209.938-468.914 468.914-468.914 258.934 0 468.914 209.938 468.914 468.914 0 32.576-3.33 64.318-9.66 95.020-20.938-36.822-44.544-75.83-70.188-117.79zM980.914 770.526c0-104.428-83.178-229.046-191.828-407.782-108.652 178.734-191.83 303.354-191.83 407.782 0 104.406 91.17 189.018 191.83 189.018 100.658-0.002 191.828-84.612 191.828-189.018zM863.686 767.714c0 41.172-33.43 74.6-74.6 74.6-41.172 0-74.602-33.428-74.602-74.6 0-41.17 33.43-74.598 74.602-74.598 41.17 0 74.6 33.428 74.6 74.598z" />
<glyph unicode="&#xe94e;" glyph-name="pin-10" d="M1024-3.668l-120.458 120.418c22.458 33.832 35.708 74.25 35.708 117.918 0 117.832-95.5 213.332-213.332 213.332-117.876 0-213.354-95.5-213.354-213.332 0-117.836 95.478-213.336 213.354-213.336 43.332 0 83.5 13.086 117.124 35.294l120.622-120.626 60.336 60.332zM597.918 234.668c0 70.582 57.414 128 128 128 70.542 0 128-57.418 128-128 0-70.586-57.458-128-128-128-70.586 0-128 57.414-128 128zM427.228 234.668l0.086 1.458-128.65-92.794v557.542l170.668 123.146v-437.188c21.668 36.418 50.73 67.876 85.332 92.188v345l170.668-123.146v-167.542h0.586c14.332 0 28.292-1.376 42.082-3.334v170.98l170.664 105.77v-362.852c50.668-51.564 82.586-121.314 85.336-198.52v714.624l-275.418-170.666-236.582 170.666-236.582-170.666-275.418 170.666v-768l275.418-170.668 166.832 120.336c-9.646 29.29-15.022 60.54-15.022 93zM256 133.75l-170.668 105.792v567.208l170.668-105.77v-567.23z" />
<glyph unicode="&#xe94f;" glyph-name="pin-11" d="M843.48 314.276h-238.876l146.124 302.008c2.488 6.676 4.73 13.474 6.668 20.398 6.092 21.812 9.582 44.708 9.582 68.474 0 140.738-114.124 254.842-254.872 254.842s-254.864-114.104-254.864-254.842c0-23.756 3.502-46.654 9.594-68.474 1.924-6.922 4.166-13.722 6.656-20.398l146.104-302.010h-238.858l-180.612-378.274h1023.99l-180.636 378.276zM512.114 796.334c50.35 0 91.21-40.836 91.21-91.176 0-50.38-40.85-91.186-91.21-91.186s-91.186 40.826-91.186 91.186c0 50.34 40.826 91.176 91.186 91.176zM367.444 220.764c42.864-5.826 68.034-35.736 98.868-72.876 48.998-58.992 109.978-132.436 272.68-132.436 99.502 0 160.432 18.074 181.514 53.658l46.316-96.982h-599.378v248.636zM859.67 196.528c-63.364-0.154-133.998 0.43-168.672 35.020-11.92 11.92-18.566 27.402-20.644 46.624h150.374l38.942-81.644zM512.114 123.116l75.028 155.044h65.208c2.314-24.118 10.72-44.238 25.896-59.414 38.214-38.142 108.392-40.292 172.984-40.292 4.208 0 8.376 0 12.524 0l4.556 0.020 41.584-87.080c-0.584-3.186-1.434-6.348-2.866-9.432-10.17-22.118-47.574-48.456-168.010-48.456-154.212 0-209.776 66.886-258.774 125.922-31.384 37.764-61.428 73.278-112.762 79.348v39.374h69.642l74.99-155.034zM203.512 278.16h145.88v-38.186c-78.848-0.626-114.464-27.474-143.084-49.174-18.84-14.264-34.344-25.884-58.286-28.896l55.49 116.256zM139.082 143.226c35.308 1.026 56.196 16.6 78.122 33.178 27.832 21.094 59.514 44.862 132.188 45.446v-249.722h-291.994l81.684 171.098z" />
<glyph unicode="&#xe950;" glyph-name="pin-12" d="M707.926 681.010c-48.644 0-88.106 39.448-88.106 88.122 0 48.692 39.458 88.108 88.106 88.108 48.672 0 88.136-39.434 88.136-88.108s-39.464-88.122-88.136-88.122zM707.926 447.438c0 0 183.078 228.384 183.078 329.496s-81.95 183.066-183.078 183.066c-101.098 0-183.050-81.958-183.050-183.066 0-101.128 183.050-329.496 183.050-329.496zM282.050 6.734l-190.314 78.422v545.098l190.314-78.376v-545.144zM999.016 18.106v689.446l-68.876 36.674c-5.25-19.446-13.554-40.566-23.886-62.38l26.024-19.012v-545.088l-190.32 78.364v247.074c-6.826-8.852-11.872-15.204-14.372-18.324l-19.66-24.484-19.618 24.484c-2.328 2.934-6.926 8.684-13.074 16.644v-272.812l-326.508-134.492v545.11l172.41 59.194c-10.866 20.852-20.322 41.4-27.45 60.874l-211.636-75.318-257.066 105.826v-689.45l257.066-105.878 459.908 189.39 257.058-105.842z" />
<glyph unicode="&#xe951;" glyph-name="pin-13" d="M962.006 508.268c10.414-27.648 1.806-40.216-41.326-41.25h-557.108c-22.824 0-41.446 18.348-41.446 41.172v408.666c0 22.824 18.624 41.020 41.446 41.020h557.108c36.244 1.032 55.188-7.424 41.326-41.172l-91.834-194.458 91.834-213.978zM293.768 53.208c0-13.79-7.316-24.968-16.338-24.968h-37.446c-9.024 0-16.338 11.18-16.338 24.968v880.212c0 13.792 7.316 24.97 16.338 24.97h37.446c9.022 0 16.338-11.18 16.338-24.97v-880.212zM337.1 61.922c14.12-3.054 28.036-6.95 41.476-12.27 5.058-2-4.726 2.046 0.166-0.082 1.352-0.586 2.692-1.214 4.030-1.844 2.552-1.196 5.050-2.5 7.528-3.848 2.312-1.262 4.562-2.632 6.782-4.050 1.052-0.672 2.076-1.39 3.098-2.102 3.372-2.352-4.694 3.804 0-0.008 1.72-1.39 3.334-2.906 4.898-4.472 1.55-1.55 6.108-7.664 0.92-0.672 1.124-1.512 2.084-3.136 2.966-4.804 0.91-1.71 2.108-5.316-0.948 2.472 0.424-1.078 0.732-2.204 1.018-3.324 0.476-1.864 0.78-5.644-0.222 2.8 0.102-0.852 0.116-1.704 0.128-2.554 0.012-0.722-0.042-1.446-0.092-2.164-0.25-3.496 1.060 6.554 0.416 3.106-0.27-1.442-0.714-2.844-1.208-4.214-1.198-3.328 2.626 5.934 1.094 2.708-0.448-0.938-0.968-1.836-1.498-2.73-0.41-0.692-0.868-1.356-1.318-2.016-2.086-3.050 3.94 4.996 1.584 2.070-1.1-1.368-2.312-2.644-3.546-3.89-1.316-1.328-2.73-2.562-4.164-3.774-3.116-2.626 4.946 3.75 1.64 1.246-1.098-0.832-2.23-1.618-3.366-2.39-3.696-2.532-7.604-4.738-11.57-6.808-2.16-1.128-4.364-2.168-6.576-3.188-1.152-0.528-2.312-1.032-3.476-1.532 7.334 3.168 1.298 0.562-0.316-0.066-11.312-4.418-23.052-7.714-34.878-10.446-6.334-1.464-12.722-2.684-19.128-3.786-3.346-0.574-6.704-1.078-10.062-1.562-1.166-0.164-7.076-0.918-0.708-0.118-2.332-0.292-4.67-0.55-7.006-0.804-30.796-3.356-62.024-3.328-92.848-0.368-3.524 0.34-7.042 0.746-10.556 1.172-1.066 0.128-6.982 0.938-0.918 0.090-1.694 0.234-3.38 0.492-5.072 0.75-7.048 1.082-14.060 2.402-21.032 3.902-12.030 2.59-23.906 5.938-35.458 10.184-1.716 0.628-10.324 4.192-3.098 1.128-2.3 0.972-4.572 2.020-6.826 3.106-4.482 2.148-8.828 4.574-13.020 7.246-1.758 1.126-3.46 2.328-5.14 3.562 6.842-5.046 0.984-0.64-0.544 0.726-1.352 1.208-2.626 2.504-3.858 3.832-0.592 0.632-1.142 1.292-1.698 1.958 5.36-6.414 2.372-3.106 1.226-1.43-0.886 1.296-1.652 2.676-2.36 4.074-2.25 4.458 2.278-6.742 0.51-0.878-0.21 0.7-0.366 1.41-0.518 2.126-0.75 3.492 0.746-6.878 0.388-3.324-0.244 2.434 0.808 9.208-0.542 0.546 0.274 1.75 0.81 3.45 1.42 5.11-2.89-7.906-0.604-1.708 0.65 0.332 0.514 0.84 1.094 1.632 1.668 2.43-4.43-6.128-2.18-2.886-1.002-1.536 1.692 1.942 3.584 3.7 5.52 5.394 1.218 1.066 4.782 3.766-1.054-0.714 0.986 0.758 2.006 1.464 3.022 2.18 2.15 1.508 4.396 2.878 6.656 4.21 5.022 2.964 10.302 5.468 15.646 7.786-6.334-2.742-1.164-0.516 0.12-0.012 1.526 0.598 3.058 1.16 4.598 1.718 3.2 1.168 6.438 2.222 9.686 3.242 6.978 2.196 14.070 4.012 21.196 5.652 12.332 2.836 19.592 16.532 16.406 28.418-3.362 12.542-16.094 19.242-28.416 16.406-28.34-6.524-56.094-16.542-79.050-34.746-17.164-13.614-27.93-36.954-20.768-58.628 6.638-20.090 23.67-34.058 41.792-43.714 22.228-11.848 47.076-18.8 71.724-23.378 60.562-11.242 125.062-10.524 185.032 3.964 38.012 9.188 95.094 29.876 97.11 76.786 0.994 23.156-16.24 41.176-34.008 53.208-21.112 14.296-47.306 22.032-71.982 27.376-12.362 2.676-25.026-3.586-28.508-16.262-3.224-11.688 3.894-25.832 16.244-28.508v0z" />
<glyph unicode="&#xe952;" glyph-name="shop-01" d="M990.326 56.386c-2.322 5.78-5.684 9.3-9.706 11.446-6.042 3.23-13.51 3.344-21.236 3.344-9.076 0-18.182-0.018-27.258 0 0.28 2.418 0.424 4.87 0.424 7.516v345.16c-18.88-2.546-36.168-3.992-52.322-4.268v-348.426c-123.050-0.064-246.12-0.046-369.202-0.046v0.114c-36.462 0-72.938-0.018-109.402 0-0.144 31.41-0.048 62.842-0.016 94.236 0 33.62 0.066 67.222-0.064 100.81-0.016 6.574-0.422 13.182-1.46 19.662-8.054 49.574-59.124 83.098-107.842 70.956-41.752-10.406-69.982-47.582-70.046-92.71-0.114-64.302-0.048-128.622 0-192.922-26.138 0-52.256 0.018-78.394 0.046v348.28c-16.298 0.276-33.426 1.72-52.304 4.138v-345.016c0-2.58 0.114-4.966 0.34-7.336-11.054 0.014-22.078 0.014-33.118 0.048-8.050 0.016-15.698-0.426-21.542-3.572-5.34-2.858-9.188-7.956-10.568-17.014-2.986-19.968 8.084-30.406 32.386-30.406 47.662 0.018 95.34 0.048 142.986 0.048 70.178 0.046 140.326 0.064 210.502 0.064 16.3 0.018 32.596 0.018 48.88 0.018 33.782 0.016 67.546 0.046 101.33 0.046 38.376 0 76.718 0.016 115.1 0.016 94.59 0.020 189.202-0.162 283.826-0.144 24.356 0.020 36.756 15.766 28.706 35.912zM752.876 352.522h-100.974c-31.316 0-56.802-25.486-56.802-56.802v-93.994c0-31.31 25.486-56.784 56.802-56.784h100.974c31.314 0 56.786 25.472 56.786 56.784v93.994c0 31.33-25.454 56.802-56.786 56.802zM783.134 295.718v-93.994c0-16.67-13.572-30.256-30.242-30.256h-100.974c-16.672 0-30.26 13.586-30.26 30.256v93.994c0 16.674 13.588 30.26 30.26 30.26h100.974c16.67 0 30.242-13.57 30.242-30.26zM833.282 875.572h-645.276c-53.442 0-96.916-43.474-96.916-96.916v-33.57c6.948 4.48 15.91 7.434 26.348 9.108 8.036 1.25 16.362 2.012 24.724 2.434v22.028c0 25.276 20.568 45.844 45.842 45.844h645.274c25.276 0 45.844-20.568 45.844-45.844v-21.882c9.288-0.39 18.524-1.184 27.418-2.58 9.126-1.446 17.126-3.898 23.654-7.516v31.98c0.004 53.44-43.472 96.914-96.912 96.914zM1022.632 503.074c-7.42 16.446-15.878 32.678-22.924 49.206-20.892 49.042-41.51 98.1-61.75 147.254-5.552 13.54-19.646 21.040-38.882 24.090-14.22 2.24-29.318 2.874-44.028 2.874-114.366 0.114-228.682 0.13-343.048 0.13s-228.686-0.034-343.050-0.13c-14.708 0-29.806-0.634-44.026-2.874-19.238-3.068-33.328-10.552-38.88-24.090-20.244-49.14-40.86-98.212-61.752-147.254-7.046-16.526-15.502-32.76-22.922-49.206-7.044-15.682-0.518-27.582 20.292-36.526 7.208-3.084 15.26-6.202 23.572-7.306 54.188-7.29 108.652-9.416 160.73 5.276 17.858 5.048 32.842 14.432 49.252 21.882 51.234-45.712 200.258-46.216 256.476 1.136 0.114-0.082 0.196-0.178 0.324-0.26 0.116 0.082 0.196 0.178 0.326 0.26 56.216-47.354 205.244-46.85 256.478-1.136 16.392-7.434 31.376-16.834 49.25-21.882 52.080-14.708 106.542-12.564 160.732-5.276 8.294 1.104 16.364 4.22 23.572 7.306 20.794 8.944 27.302 20.86 20.258 36.526zM200.572 525.166c-1.104-12.532-11.852-22.012-24.432-21.542l-13.084 0.486c-13.522 0.504-23.846 12.24-22.662 25.698l12.37 139.626c1.102 12.532 11.85 22.014 24.432 21.542l13.084-0.486c13.524-0.504 23.848-12.242 22.664-25.698l-12.372-139.626zM365.976 525.166c-1.104-12.532-11.85-22.012-24.432-21.542l-13.084 0.486c-13.522 0.504-23.846 12.24-22.662 25.698l12.37 139.626c1.104 12.532 11.85 22.014 24.432 21.542l13.084-0.486c13.522-0.504 23.848-12.242 22.662-25.698l-12.37-139.626zM539.58 527.522c0-13.052-10.584-23.636-23.636-23.636h-13.148c-13.052 0-23.638 10.584-23.638 23.636v139.82c0 13.052 10.586 23.636 23.638 23.636h13.148c13.052 0 23.636-10.584 23.636-23.636v-139.82zM690.262 504.128l-13.1-0.488c-12.58-0.47-23.328 8.994-24.434 21.542l-12.334 139.626c-1.188 13.474 9.136 25.194 22.662 25.698l13.082 0.488c12.582 0.47 23.33-8.996 24.434-21.542l12.352-139.626c1.186-13.456-9.138-25.178-22.662-25.698zM855.652 504.128l-13.084-0.488c-12.582-0.47-23.328 8.994-24.434 21.542l-12.354 139.626c-1.188 13.474 9.14 25.194 22.664 25.698l13.082 0.488c12.582 0.47 23.326-8.996 24.432-21.542l12.354-139.626c1.186-13.456-9.154-25.178-22.66-25.698z" />
<glyph unicode="&#xe953;" glyph-name="shop-02" d="M878.36 785.94c15.858 2.958 27.882 16.796 27.882 33.512 0 18.876-15.292 34.148-34.168 34.148h-720.12c-18.866 0-34.148-15.272-34.148-34.148 0-16.706 12.008-30.556 27.866-33.512l-145.478-280.792v-54.64c0-24.528 26-44.406 58.050-44.406 10.758 0 20.808 2.292 29.45 6.196v-369.898h848.604v369.896c8.66-3.922 18.682-6.196 29.47-6.196 32.048 0 58.040 19.872 58.040 44.406v54.64l-145.448 280.794zM171.928 406.114c-30.566 0-55.348 19.86-55.348 44.394v5.118h-0.278v49.514l109.692 280.154h87.632l-86.344-280.154v-54.642c0-0.010 0-0.020 0-0.020-0.018-24.498-24.79-44.364-55.354-44.364zM398.762 406.114c-30.576 0-55.358 19.86-55.358 44.394v54.632l45.848 280.154h87.356l-22.488-280.156v-54.632c-0.022-24.514-24.804-44.392-55.358-44.392zM625.544 406.114c-30.554 0-55.336 19.86-55.336 44.394v54.632l-22.52 280.154h87.088l45.85-280.154v-54.642c0-0.748 0.124-1.494 0.164-2.21-1.474-23.472-25.61-42.174-55.246-42.174zM907.43 450.508c0-24.528-24.782-44.394-55.348-44.394-30.552 0-55.334 19.86-55.334 44.394v54.632l-86.376 280.154h87.642l109.692-280.154v-49.514h-0.266v-5.118h-0.010z" />
<glyph unicode="&#xe954;" glyph-name="shop-03" d="M121.986 569.874c67.31 0 121.878 54.568 121.878 121.878 0 13.462-10.914 24.376-24.376 24.376s-24.376-10.914-24.376-24.376c0-40.386-32.74-73.126-73.126-73.126-40.388 0-73.128 32.738-73.128 73.126 0 13.462-10.916 24.376-24.376 24.376-13.462 0-24.376-10.914-24.376-24.376 0-67.31 54.568-121.878 121.88-121.878zM96.88 880.848c3.266 13.060-4.674 26.294-17.736 29.56-13.060 3.266-26.294-4.676-29.558-17.734l-48.752-195.008c-3.266-13.060 4.674-26.296 17.736-29.56 13.060-3.266 26.294 4.676 29.562 17.736l48.748 195.006zM268.052 883.736c1.67 13.358-7.804 25.542-21.164 27.21-13.358 1.672-25.542-7.804-27.21-21.164l-24.376-195.006c-1.668-13.36 7.806-25.542 21.166-27.21 13.358-1.67 25.542 7.804 27.21 21.164l24.374 195.006zM804.322 889.784c-1.67 13.36-13.854 22.836-27.21 21.164-13.358-1.67-22.834-13.854-21.162-27.21l24.374-195.006c1.672-13.36 13.854-22.834 27.21-21.164 13.36 1.668 22.834 13.852 21.164 27.21l-24.376 195.006zM974.414 892.674c-3.266 13.058-16.5 21-29.56 17.734-13.058-3.266-21-16.5-17.736-29.56l48.752-195.006c3.268-13.060 16.5-21.002 29.56-17.736 13.062 3.264 21.002 16.5 17.736 29.56l-48.752 195.008zM316.994 569.874c67.312 0 121.876 54.568 121.876 121.878 0 13.462-10.912 24.376-24.374 24.376s-24.376-10.914-24.376-24.376c0-40.386-32.74-73.126-73.126-73.126-40.388 0-73.128 32.738-73.128 73.126 0 13.462-10.914 24.376-24.376 24.376s-24.376-10.914-24.376-24.376c-0.002-67.31 54.566-121.878 121.88-121.878zM512 569.874c67.312 0 121.88 54.568 121.88 121.878 0 13.462-10.916 24.376-24.376 24.376-13.462 0-24.376-10.914-24.376-24.376 0-40.386-32.74-73.126-73.126-73.126-40.388 0-73.13 32.738-73.13 73.126 0 13.462-10.912 24.376-24.374 24.376s-24.376-10.914-24.376-24.376c-0.002-67.31 54.564-121.878 121.878-121.878zM707.006 569.874c67.312 0 121.88 54.568 121.88 121.878 0 13.462-10.912 24.376-24.376 24.376s-24.376-10.914-24.376-24.376c0-40.386-32.742-73.126-73.128-73.126s-73.126 32.738-73.126 73.126c0 13.462-10.916 24.376-24.376 24.376-13.462 0-24.376-10.914-24.376-24.376-0.002-67.31 54.57-121.878 121.878-121.878zM902.014 569.874c67.312 0 121.88 54.568 121.88 121.878 0 13.462-10.914 24.376-24.376 24.376s-24.376-10.914-24.376-24.376c0-40.386-32.74-73.126-73.126-73.126s-73.126 32.738-73.126 73.126c0 13.462-10.912 24.376-24.376 24.376s-24.376-10.914-24.376-24.376c-0.004-67.31 54.566-121.878 121.876-121.878zM950.368 911.136h-876.736c-13.682 0-24.774-11.306-24.774-24.376 0-13.46 11.048-24.376 24.774-24.376h876.734c13.684 0 24.774 11.306 24.774 24.376 0 13.462-11.044 24.376-24.772 24.376zM975.14 33.538c0-26.884-21.984-48.68-48.496-48.68h-829.29c-26.784 0-48.496 21.816-48.496 48.68v585.088h48.75v-585.016h828.78v585.016h48.752v-585.088zM390.12 911.136h48.75v-243.76h-48.75v243.76zM585.126 911.136h48.754v-243.76h-48.754v243.76zM195.112 472.372h633.774v-341.256h-633.774v341.256zM243.866 423.618h536.27v-243.752h-536.27v243.752z" />
<glyph unicode="&#xe955;" glyph-name="social-facebook" d="M383.112 624.242h-107.082v-174.79h107.082v-513.452h205.914v515.64h143.646l15.296 172.604h-158.948c0 0 0 64.45 0 98.318 0 40.698 8.196 56.812 47.516 56.812 31.682 0 111.434 0 111.434 0v179.158c0 0-117.462 0-142.566 0-153.218 0-222.294-67.458-222.294-196.642 0.002-112.516 0.002-137.648 0.002-137.648z" />
<glyph unicode="&#xe956;" glyph-name="support-01" d="M623.116 42.286c0-58.93-47.71-106.77-106.746-106.77-58.848 0-106.728 47.84-106.728 106.77s47.878 106.766 106.728 106.766c59.034-0.002 106.746-47.794 106.746-106.766zM519.746 960.484c-172.078 0-301.514-115.006-301.514-341.656h168.91c0 98.404 38.682 178.896 129.146 178.896 53.278 0 109.748-35.366 114.626-102.97 5.254-71.15-32.738-107.224-80.784-152.978-124.91-118.718-120.282-172.932-120.282-307.312h168.412c0 62.020-6.756 107.102 78.49 198.98 56.802 61.306 127.494 137.586 128.994 253.8 2.004 169.246-117.486 273.24-285.998 273.24z" />
<glyph unicode="&#xe957;" glyph-name="support-02" d="M511.978 832.592c235.614 0 427.324-153.486 427.324-342.152 0-210.116-219.836-340.19-423.484-340.19-82.776 0-144.554 16.984-187.77 27.502-42.732-26.208-68.144-44.32-182.548-77.788 22.868 58.67 30.898 117.428 25.726 182.282-35.806 42.73-86.528 102.572-86.528 208.194-0.046 188.666 191.646 342.152 427.28 342.152zM511.978 918.056c-270.832 0-512.79-180.59-512.79-427.616 0-87.594 31.528-173.644 87.466-240.368 2.358-78.208-43.712-190.422-85.152-272.128 111.17 20.072 269.25 64.43 340.922 108.374 60.592-14.728 118.58-21.49 173.434-21.49 302.714 0 508.952 206.694 508.952 425.656-0.040 248.316-243.668 427.572-512.832 427.572zM555.71 320.888c0-24.208-19.528-43.82-43.732-43.82-24.14 0-43.752 19.614-43.752 43.82 0 24.12 19.612 43.732 43.752 43.732 24.206 0.002 43.732-19.612 43.732-43.732zM604.496 670.926c-21.284 21.596-53.040 33.468-89.304 33.468-76.326 0-125.692-54.312-125.692-138.318h70.376c0 52 29.068 70.464 53.894 70.464 22.162 0 45.7-14.752 47.742-42.9 2.208-29.67-13.648-44.714-33.676-63.806-49.45-47.010-50.39-69.774-50.118-121.438h70.19c-0.416 23.246 1.086 42.128 32.76 76.264 23.702 25.56 53.166 57.36 53.792 105.85 0.332 32.384-9.976 60.22-29.964 80.416z" />
<glyph unicode="&#xe958;" glyph-name="support-03" d="M512 917.844c-270.71 0-512.556-180.51-512.556-427.422 0-87.552 31.512-173.564 87.428-240.258 2.358-78.172-43.694-190.334-85.114-272.004 111.124 20.062 269.126 64.402 340.768 108.326 394.468-95.98 682.032 145.45 682.032 403.936-0.002 248.248-243.516 427.422-512.558 427.422zM512 277.146c-24.13 0-43.734 19.608-43.734 43.796 0 24.114 19.604 43.714 43.734 43.714 24.192 0 43.712-19.602 43.712-43.714 0-24.188-19.52-43.796-43.712-43.796zM580.574 484.644c-31.574-34.122-33.076-52.994-32.702-76.228h-70.182c-0.25 51.596 0.69 74.392 50.118 121.38 20.022 19.042 35.872 34.12 33.664 63.778-2.002 28.176-25.614 42.878-47.72 42.878-24.818 0-53.872-18.458-53.872-70.43h-70.304c0 83.966 49.344 138.254 125.636 138.254 36.248 0 67.988-11.868 89.262-33.452 19.98-20.188 30.282-48.052 29.908-80.42-0.586-48.428-30.072-80.212-53.808-105.76z" />
<glyph unicode="&#xe959;" glyph-name="support-04" d="M622.004 691.854c-223.262 0-403.17-158.234-403.17-353.32 0-195.082 179.908-353.316 403.17-353.316 80.2 0 156.066 20.594 218.926 56.36 56.36-33.598 118.136-32.512 153.902-28.18 9.754 1.086 13.004 14.090 4.332 20.594-34.68 22.762-53.106 54.188-63.942 82.368 56.356 60.692 89.954 137.644 89.954 222.176 0 195.084-180.992 353.318-403.172 353.318zM649.102 195.476c0-8.672-7.59-16.258-16.258-16.258h-40.102c-8.672 0-16.258 7.586-16.258 16.258v26.012c0 8.672 7.586 16.258 16.258 16.258h40.102c8.668 0 16.258-7.586 16.258-16.258v-26.012zM713.042 352.624c-10.84-15.172-23.844-27.094-41.184-35.766-8.668-6.5-15.172-13-18.426-19.504-2.168-5.422-3.25-10.84-4.332-18.426 0-5.418-5.422-9.758-10.84-9.758h-49.856c-6.5 0-11.922 5.422-10.836 11.926 1.082 14.086 4.336 24.926 9.754 32.512 6.5 9.754 19.508 21.676 39.016 34.68 9.754 6.504 17.34 13.008 22.762 22.762 5.418 8.672 8.668 19.508 8.668 30.346 0 11.922-3.25 21.678-9.754 29.264s-15.172 10.838-27.094 10.838c-9.754 0-17.344-3.252-23.844-8.672-4.336-3.252-6.504-8.67-8.672-14.088-2.168-7.586-8.668-11.922-16.254-11.922l-46.606 1.082c-5.418 0-10.836 5.42-9.754 10.84 2.168 24.926 10.836 43.352 28.176 56.356 19.512 15.172 45.524 22.76 76.954 22.76 34.68 0 60.692-8.67 80.2-26.012 19.508-17.34 29.266-40.1 29.266-69.362-1.086-18.426-6.504-35.766-17.344-49.856zM72.52 434.996c-46.602 49.852-73.698 113.796-73.698 183.16 0 161.486 149.564 292.626 332.724 292.626 124.636 0 234.1-60.692 290.456-149.564v0c-247.104 0-450.858-171.24-471.45-387.998v0c-46.602-28.18-97.542-27.094-126.804-22.762-8.67 1.086-10.838 11.922-3.252 16.258 27.096 19.506 43.354 45.518 52.024 68.28z" />
<glyph unicode="&#xe95a;" glyph-name="support-05" d="M745.706 307.090c82.486 67.592 135.186 170.698 135.186 284.114-0.002 202.776-164.972 368.892-368.892 368.892-171.844 0-316.194-117.998-357.436-277.24-10.31-37.806-9.166-170.7-8.020-174.134 2.292-6.876 8.020-11.458 16.040-11.458l91.65 2.292c21.766-60.716 64.154-111.126 119.144-143.204-160.386-57.282-274.95-209.65-274.95-389.516 0-17.182 13.748-30.932 30.932-30.932s30.932 13.75 30.932 30.932c0 193.61 158.096 351.71 351.708 351.71 51.552 0 99.668-11.458 144.348-30.934-12.6-5.73-26.348-11.458-40.096-16.040v3.434c0 9.168-6.876 16.040-16.042 16.040l-107.686-2.29c-9.166 0-16.042-6.876-16.042-16.040l1.146-54.99c0-9.162 6.876-16.038 16.040-16.038l107.688 2.288c9.166 0 16.040 6.876 16.040 16.044v18.326c25.204 8.020 50.408 18.332 73.318 30.932 103.108-60.714 172.99-174.132 172.99-302.446 0-17.182 13.748-30.932 30.932-30.932 17.186 0 30.934 13.75 30.934 30.932-1.146 140.918-72.176 265.792-179.864 340.258zM300.058 591.204c0 116.856 95.086 211.942 211.942 211.942 116.854 0 211.94-95.086 211.94-211.942 0-116.852-95.086-211.94-211.94-211.94-116.856 0-211.942 95.088-211.942 211.94zM650.62 356.352c80.196 46.972 135.186 135.184 135.186 234.852 0 151.224-122.584 273.806-273.804 273.806-117.998 0-218.814-75.612-256.622-179.864 0 0 0 0-1.144 0l-66.446-1.146c40.094 142.056 169.55 245.164 324.21 245.164 185.59 0 337.958-151.222 337.958-337.96 0-108.832-51.552-205.064-131.746-266.93-21.768 12.602-44.678 22.914-67.592 32.078z" />
<glyph unicode="&#xe95b;" glyph-name="support-06" d="M993.918 42.328c-2.088 53.204-4.946 106.408-21.708 157.524-4.728 14.512-9.95 29.958-19.292 41.39-9.894 12.036-23.692 24.624-38.038 28.524-34.682 9.4-69.416 18.416-104.208 27.208-52.82 13.412-105.694 26.386-158.516 39.64-3.022 0.714-6.374 0.494-11.708 0.88-0.66-2.422-1.318-4.786-1.978-7.204-9.234-34.084-17.86-68.216-28.25-101.8-12.476-40.232-26.492-80.026-40.396-119.766-1.54-4.452-3.626-8.684-5.828-12.916-2.472 18.082-5.606 41.828-8.684 65.132-5.662 43.638-10.992 85.958-10.992 87.39 2.198 5.002 4.176 9.728 6.266 14.292 0.274 0.66 0.55 1.318 0.934 1.978 1.154 2.748 2.362 5.774 3.626 8.354 0.66 0.936 1.208 2.254 1.868 3.298 1.814 3.682 4.066 7.586 4.066 12.308 0 3.958-1.594 7.586-2.748 10.61l-0.658 1.318c-0.274 0.662-0.274 0.934-0.662 1.706-0.272 0.934-0.932 2.198-1.592 3.298l-0.276 0.604c-0.22 0.274-0.66 0.662-0.66 0.934-0.772 1.32-1.706 2.256-2.584 2.912-1.704 1.154-3.406 1.54-4.726 1.814h-3.132c-0.936 0.66-2.254 0.66-2.746 0.66-4.346 0.276-15.228 0.276-29.244 0.276-13.906 0-25.006 0-29.35-0.276-0.934 0-1.814 0-2.858-0.66h-2.75c-2.088-0.382-5.002-1.042-7.476-4.726-0.274-0.272-0.274-0.66-0.548-1.318l-0.386-0.218c-0.108-0.276-0.272-0.548-0.382-0.826-2.472-2.472-3.956-5.878-4.068-9.948-0.494-1.814-1.044-3.904-1.044-6.154 0-4.726 2.090-8.63 4.068-12.312 0.11-0.272 0.384-0.658 0.496-1.042 0.44-0.772 0.932-1.596 1.318-2.254 1.208-2.582 2.53-5.608 3.682-8.354 0.274-0.382 0.552-0.936 0.66-1.428 2.2-4.892 4.344-9.728 6.434-14.84 0-0.878-1.208-10.444-3.024-25.008-4.342-33.144-12.036-91.568-16.818-127.516-2.198 4.232-4.288 8.462-5.826 12.916-13.906 39.74-27.92 79.536-40.398 119.768-10.388 33.636-19.074 67.878-28.308 102.020-0.66 2.31-1.264 4.674-1.924 6.982-5.33-0.382-8.684-0.164-11.708-0.88-47.268-11.878-94.592-23.478-141.804-35.406-0.054 0-0.054-0.054-0.054-0.054-40.344-10.114-80.688-20.502-120.864-31.384-13.466-3.682-26.494-15.006-36.168-26.328-0.66-0.714-1.264-1.484-1.868-2.2-9.344-11.434-14.566-26.876-19.292-41.386-14.896-45.4-18.798-92.45-20.998-139.716-0.22-5.934-0.496-11.874-0.714-17.808-1.318-33.692-6.266-27.15 26.546-40.948 8.080-3.408 16.27-6.432 24.624-9.178 59.36-19.236 119.766-32.042 180.774-40.564 59.69-8.41 120.042-12.586 180.554-14.84 11.596-0.44 104.046-1.1 104.046-1.1 11.596 0.33 23.194 0.66 34.792 1.1 95.578 3.464 190.666 12.094 283.666 33.86 26.052 6.044 51.94 13.19 77.662 21.544 8.354 2.748 16.544 5.77 24.626 9.178 32.814 13.788 27.866 7.248 26.548 40.94zM695.494 687.36c-0.086-10.78-0.576-21.474-1.458-32.084-1.428-17.422-3.91-34.624-7.358-51.626-36.584-15.922-74.892-25.622-114.35-31.104-8.778-1.218-17.592-2.27-26.436-2.746-2.412-0.126-5.748 1.5-7.304 3.418-8.464 10.528-19.118 16.092-32.688 16.036-13.302-0.056-26.62 0.056-39.934-0.042-21.43-0.168-37.944-14.748-39.486-34.79-1.666-21.43 11.844-39.4 33.67-41.434 17.34-1.626 34.986-0.854 52.436 0.056 12.138 0.646 21.068 7.92 27.768 18.012 1.33 2.002 3.868 4.316 6.014 4.512 44.18 3.924 87.352 12.292 130.204 27.808-5.676-19.118-12.574-37.986-20.58-56.628-0.908-2.13-1.848-4.26-2.79-6.39-13.346-29.786-33.024-55.268-56.474-78.272-24.304-23.828-54.442-35.252-84.73-34.088-30.29-1.162-60.428 10.26-84.732 34.088-1.386 1.362-2.748 2.72-4.106 4.094-21.642 21.922-39.808 46.144-52.366 74.178-26.534 59.74-41.77 121.806-42.288 186.998 0 9.28-0.672 18.376 0.182 27.64 2.958 31.846 12.306 61.492 28.846 86.204 16.020 23.94 38.8 43.242 69.046 55.366 27.388 10.92 56.152 15.726 85.418 16.050 29.27-0.322 58.030-5.13 85.418-16.050 61.438-24.654 92.076-78.844 97.892-141.57 0.858-9.26 0.186-18.356 0.186-27.636zM807.95 714.37c-1.974 9.684-2.76 23.492-9.558 31.144-2.69 3.042-18.546 6.196-18.922 7.248-0.084 0.252-11.354 32.028-11.354 32.028-28.696 71.892-77.108 124.12-145.568 154.984-34.928 15.754-71.062 22.818-106.456 22.188-1.374-0.030-2.732-0.054-4.094-0.126-1.358 0.072-2.72 0.098-4.094 0.126-35.39 0.63-71.526-6.432-106.456-22.188-68.46-30.866-116.874-83.092-145.566-154.984 0 0-11.268-31.776-11.354-32.028-0.378-1.052-16.232-4.208-18.922-7.248-6.8-7.652-7.584-21.46-9.56-31.144-2.802-13.85-3.714-28.006-2.69-42.106 1.276-17.466 4.5-34.986 10.26-51.554 4.33-12.46 11.66-36.43 28.356-34.706 8.844 0.91 27.516 3.126 36.374 3.994 1.444 0.14 2.888 0.294 4.344 0.434 5.832 0.59 10.092 5.832 9.49 11.66-1.192 11.452-2.328 22.5-3.518 33.542-2.634 24.684-5.37 49.354-7.976 74.038-1.458 13.736-6.7 29.534-2.088 43.102 34.962 102.788 125.76 168.374 223.402 163.55 97.642 4.824 188.442-60.762 223.4-163.546 4.61-13.57-0.63-29.366-2.090-43.102-2.606-24.684-5.34-49.354-7.974-74.038-1.192-11.044-2.328-22.090-3.52-33.542-0.604-5.832 3.656-11.074 9.488-11.66 1.458-0.14 2.902-0.294 4.346-0.434 8.86-0.87 27.53-3.084 36.376-3.994 16.694-1.724 24.026 22.244 28.356 34.706 5.762 16.568 8.984 34.088 10.26 51.554 1.024 14.096 0.114 28.254-2.692 42.102z" />
<glyph unicode="&#xe95c;" glyph-name="support-07" d="M896.94 505.454c-22.982 314.56-146.508 415.102-376.32 415.102 0 0-392.122 0-392.122-471.12 0-405.048-129.27-370.576-129.27-370.576s91.924-79 356.21-103.418c4.31 25.856 7.182 57.456 0 90.49-41.654 44.526-100.542 122.090-100.542 202.524-58.89 17.236-71.818 58.89-53.144 99.11 185.288 150.814 150.816 357.648 150.816 357.648 63.2-245.614 354.776-317.43 435.212-321.74 0 0 96.236-58.892 0-126.4v-1.436c-2.872-2.874-4.308-7.182-4.308-12.926 0-25.856-7.182-45.964-21.546-61.762-20.106-20.11-57.456-33.040-107.724-35.908-8.62 21.542-30.164 37.342-54.582 37.342-33.036 0-58.89-25.854-58.89-58.888 0-33.038 25.856-58.89 58.89-58.89 25.856 0 45.962 15.796 54.582 38.782 40.218 2.874 73.254 10.054 99.106 22.982-17.232-31.602-40.216-57.456-78.996-84.746 0-34.47 2.874-61.762 7.182-83.304 262.848 24.418 343.286 104.852 343.286 104.852s-106.296 107.722-127.84 422.282z" />
<glyph unicode="&#xe95d;" glyph-name="support-08" d="M512 960c-282.75 0-512-229.25-512-512s229.25-512 512-512 512 229.25 512 512-229.25 512-512 512zM894.918 261l-111.254 63.332c17.168 37.75 27 79.5 27 123.668s-9.832 85.938-27 123.604l111.254 63.354c27.746-56.52 43.746-119.834 43.746-186.958s-16-130.418-43.746-187zM85.332 448c0 67.126 16 130.438 43.732 187l111.268-63.354c-17.186-37.708-27-79.478-27-123.646s9.814-85.918 27-123.582l-111.268-63.376c-27.732 56.54-43.732 119.834-43.732 186.958zM298.664 448c0 117.626 95.71 213.334 213.336 213.334 117.624 0 213.332-95.708 213.332-213.334 0-117.624-95.708-213.332-213.332-213.332-117.626 0-213.336 95.708-213.336 213.332zM699.582 830.626l-63.332-111.27c-37.918 17.374-79.876 27.312-124.25 27.312-44.376 0-86.354-9.938-124.25-27.314l-63.354 111.27c56.708 27.916 120.228 44.042 187.604 44.042 67.374 0.002 130.918-16.124 187.582-44.040zM324.396 65.376l63.354 111.292c37.896-17.418 79.874-27.336 124.25-27.336 44.374 0 86.332 9.918 124.25 27.336l63.332-111.292c-56.664-27.918-120.208-44.044-187.582-44.044-67.376 0-130.896 16.126-187.604 44.044z" />
</font>
</defs>
</svg>
